<svg width="122" height="142" viewBox="0 0 122 142" fill="none" xmlns="http://www.w3.org/2000/svg">
<path d="M60.7764 22.1624C76.7916 22.1624 91.6437 24.6104 102.489 33.3723C113.404 42.1899 119.935 57.122 119.935 81.3088V81.3645L119.931 81.4192C118.564 99.9971 114.726 114.83 105.613 125.001C96.4475 135.231 82.2174 140.456 60.7764 140.456C41.6445 140.456 28.691 134.334 19.5918 123.755C10.5695 113.266 5.475 98.5482 1.65625 81.6399L1.62695 81.512L1.62109 81.3811C0.517276 58.4795 7.06936 43.5489 18.2402 34.3987C29.3352 25.3107 44.7059 22.1624 60.7764 22.1624Z" fill="#890F0F" stroke="#181818" stroke-width="3"/>
<path d="M54.249 1.5L54.3955 1.50684C55.119 1.57712 55.6979 2.16282 55.7461 2.90234L58.4658 44.7783C58.4927 45.1921 58.347 45.5988 58.0635 45.9014C57.7799 46.204 57.3834 46.376 56.9688 46.376H55.8809C55.163 46.376 54.5455 45.8667 54.4082 45.1621L46.249 3.28711C46.1633 2.84729 46.2795 2.39172 46.5645 2.0459C46.8494 1.7003 47.2737 1.5 47.7217 1.5L54.249 1.5Z" fill="#890F0F" stroke="#181818" stroke-width="3" stroke-linejoin="round"/>
<path d="M44.2627 42.6913C46.922 42.6913 53.3451 43.9965 57.7636 49.2173C58.1727 46.3168 60.832 40.2984 68.1962 39.4282" stroke="#181818" stroke-width="3" stroke-linecap="round" stroke-linejoin="round"/>
</svg>
