<svg width="555" height="580" viewBox="0 0 555 580" fill="none" xmlns="http://www.w3.org/2000/svg">
<path d="M-25.9995 563.389L34.0467 459.109M381.408 115.811L299.084 112.543L214.636 194.281L265.202 266.862M204.93 347.137L94.0929 354.829L34.0467 459.109M204.93 347.137L107.259 215.321L148.066 116.97L59.5319 45.2138L217.958 9.00004L229.242 88.2823M204.93 347.137L221.938 383.044M265.202 266.862L315.768 339.444L221.938 383.044M265.202 266.862L367.69 215.37L428.658 289.385L502.417 233.934L536.017 264.809M34.0467 459.109L198.327 455.5L250.055 534.298L206.251 570.154M221.938 383.044L305.609 486.433L376.973 404.407L443.148 458.95L545.596 371.112" stroke="#890F0F" stroke-width="18" stroke-linecap="round" stroke-linejoin="round"/>
</svg>
