<svg width="277" height="261" viewBox="0 0 277 261" fill="none" xmlns="http://www.w3.org/2000/svg">
<path d="M276.103 182.631H201.004C190.634 149.288 165.021 132.686 138.216 130.218V0C163.577 19.3754 190.642 57.4613 201.004 74.0823C241.139 83.4281 246.864 122.426 244.709 140.756C273.025 153.293 277.437 173.896 276.103 182.631Z" fill="#890F0F"/>
<path d="M0.210434 182.641H75.6688C86.0883 149.245 111.544 132.686 138.477 130.214L138.195 0C112.712 19.4067 86.0805 57.2694 75.6688 73.9173C35.3419 83.2782 29.5898 122.339 31.7546 140.699C3.30302 153.257 -1.12968 173.893 0.210434 182.641Z" fill="#890F0F"/>
<ellipse cx="137.911" cy="198.315" rx="59.2659" ry="62.6851" fill="#890F0F"/>
</svg>
