<svg width="1440" height="900" viewBox="0 0 1440 900" fill="none" xmlns="http://www.w3.org/2000/svg">
<g clip-path="url(#clip0_183_668)">
<rect width="1442" height="900" fill="#181818" fill-opacity="0.88"/>
<rect x="289" y="221" width="862" height="490" rx="47" fill="#E2E4EF"/>
<path d="M419.16 338.92C423.48 345.373 425.64 352.547 425.64 360.44C425.64 361.08 425.027 361.747 423.8 362.44C422.627 363.133 421.267 363.747 419.72 364.28C418.173 364.76 416.947 365 416.04 365L389.4 364.92C388.44 364.973 387.96 362.76 387.96 358.28C387.96 357.107 388.04 354.44 388.2 350.28L388.36 346.52C388.413 344.6 388.547 340.093 388.76 333C389.027 325.907 389.16 320.947 389.16 318.12C389.16 314.387 388.947 311.4 388.52 309.16C388.147 306.867 387.4 304.947 386.28 303.4C385.853 302.813 386.893 302.253 389.4 301.72C391.907 301.187 394.333 300.92 396.68 300.92H399.32L422.44 300.84L422.68 301.08C422.627 304.653 421.933 308.093 420.6 311.4C419.32 314.707 417.48 317.747 415.08 320.52L413.96 321.64C412.84 322.653 411.933 323.587 411.24 324.44C410.6 325.293 410.28 326.147 410.28 327C410.28 327.427 410.413 327.907 410.68 328.44C411.48 329.773 412.947 331.613 415.08 333.96C417 336.093 418.36 337.747 419.16 338.92ZM415.48 360.28C415.427 357.293 414.6 353.933 413 350.2C411.453 346.413 409.187 342.76 406.2 339.24L404.6 337.56C403.32 336.28 402.307 335.133 401.56 334.12C400.867 333.107 400.52 332.093 400.52 331.08C400.52 330.173 400.84 329.32 401.48 328.52C401.747 328.2 402.627 327.213 404.12 325.56C405.827 323.747 406.947 322.44 407.48 321.64C410.307 317.533 411.72 312.413 411.72 306.28C411.72 305.907 411.613 305.693 411.4 305.64C411.187 305.533 410.92 305.507 410.6 305.56C410.333 305.56 410.147 305.56 410.04 305.56H399.48H399.16C399.213 306.2 399.24 307.187 399.24 308.52C399.24 310.387 399.16 312.76 399 315.64C398.947 317.293 398.867 321.64 398.76 328.68C398.653 335.72 398.6 341.56 398.6 346.2C398.6 349.667 398.653 352.493 398.76 354.68C398.92 356.867 399.267 358.733 399.8 360.28H415.48ZM461.179 319.32C462.993 323.747 463.899 328.36 463.899 333.16C463.899 333.96 463.846 335.107 463.739 336.6C463.206 342.84 461.526 347.933 458.699 351.88C455.499 356.36 450.779 360.04 444.539 362.92C443.206 363.72 441.526 364.413 439.499 365C437.526 365.64 436.513 365.8 436.459 365.48C435.979 363.72 435.339 362.04 434.539 360.44C433.739 358.787 432.699 356.84 431.419 354.6C429.339 350.973 427.873 348.013 427.019 345.72C425.579 341.987 424.859 337.933 424.859 333.56C424.859 331.693 424.966 330.013 425.179 328.52C426.033 321.693 427.953 316.36 430.939 312.52C433.179 309.64 436.006 307.24 439.419 305.32C442.833 303.4 446.566 301.933 450.619 300.92C451.046 300.813 451.366 300.76 451.579 300.76C452.059 300.76 452.326 300.813 452.379 300.92C452.806 302.627 453.393 304.28 454.139 305.88C454.886 307.427 455.953 309.4 457.339 311.8C457.606 312.28 458.166 313.293 459.019 314.84C459.873 316.387 460.593 317.88 461.179 319.32ZM451.739 350.44C453.286 346.44 454.059 342.147 454.059 337.56C454.059 331.853 452.753 326.333 450.139 321C449.286 319.293 448.406 317.72 447.499 316.28C447.286 315.907 446.806 315.053 446.059 313.72C445.313 312.333 444.646 311.053 444.059 309.88C443.526 308.653 443.099 307.507 442.779 306.44C442.086 307.027 441.499 307.64 441.019 308.28C439.473 310.307 438.273 312.44 437.419 314.68C435.659 319.213 434.779 324.173 434.779 329.56C434.779 334.84 435.953 339.907 438.299 344.76C438.726 345.613 439.713 347.427 441.259 350.2C442.113 351.693 442.966 353.267 443.819 354.92C444.673 356.573 445.339 358.12 445.819 359.56C448.219 357.373 450.193 354.333 451.739 350.44ZM502.008 353.32C502.755 357.64 503.501 360.333 504.248 361.4C505.048 362.467 505.448 363.08 505.448 363.24C505.555 363.667 504.968 364.067 503.688 364.44C502.461 364.813 501.155 365.08 499.768 365.24C497.795 365.507 496.355 365.64 495.448 365.64C493.848 365.64 492.941 365.347 492.728 364.76C492.568 364.28 492.408 363.187 492.248 361.48C491.928 358.387 491.475 355.373 490.888 352.44C489.821 346.893 488.435 341.347 486.728 335.8C485.021 330.2 483.288 325.48 481.528 321.64C477.101 326.387 474.408 334.333 473.448 345.48C473.341 347.08 473.288 348.36 473.288 349.32C473.288 352.2 473.528 354.92 474.008 357.48C474.541 359.987 475.261 361.88 476.168 363.16C476.488 363.587 475.955 364.013 474.568 364.44C473.235 364.813 471.555 365.107 469.528 365.32C467.555 365.587 465.928 365.667 464.648 365.56C463.635 365.507 463.128 363.107 463.128 358.36C463.128 355 463.288 352.333 463.608 350.36C464.035 347.373 464.648 344.28 465.448 341.08C466.248 337.88 467.795 334.147 470.088 329.88C472.435 325.56 475.688 321.64 479.848 318.12C478.675 315.507 477.795 313.32 477.208 311.56C476.675 309.8 476.408 308.253 476.408 306.92C476.408 305.64 477.021 304.547 478.248 303.64C479.528 302.68 480.835 301.96 482.168 301.48C484.995 300.467 486.515 300.173 486.728 300.6C486.781 300.76 486.755 301.16 486.648 301.8C486.595 302.387 486.595 303.08 486.648 303.88C486.648 306.227 488.515 311.693 492.248 320.28C493.688 323.64 495.101 327.64 496.488 332.28C497.928 336.867 499.155 341.187 500.168 345.24C501.181 349.293 501.795 351.987 502.008 353.32ZM565.798 362.6C566.225 363.133 565.238 363.667 562.838 364.2C560.491 364.68 558.145 364.947 555.798 365H508.518C507.985 365 507.585 364.973 507.318 364.92C506.358 364.867 505.878 362.627 505.878 358.2C505.878 357.133 505.958 354.52 506.118 350.36L506.278 346.68C506.331 344.707 506.465 340.173 506.678 333.08C506.945 325.987 507.078 321 507.078 318.12C507.078 314.333 506.945 311.693 506.678 310.2C506.465 308.653 505.825 307.133 504.758 305.64C504.438 305.16 504.918 304.493 506.198 303.64C507.531 302.787 509.131 302.04 510.998 301.4C512.918 300.707 514.491 300.413 515.718 300.52C516.678 300.573 517.158 302.947 517.158 307.64C517.158 308.76 517.051 311.453 516.838 315.72C516.785 319.293 516.705 324.12 516.598 330.2C516.545 336.28 516.518 341.64 516.518 346.28C516.518 349.747 516.571 352.573 516.678 354.76C516.838 356.947 517.185 358.813 517.718 360.36H529.558C529.505 359.4 529.558 356.84 529.718 352.68L529.798 350.36C530.385 331.853 530.678 320.707 530.678 316.92C530.678 313.667 530.545 311.32 530.278 309.88C530.065 308.44 529.425 307.027 528.358 305.64C528.038 305.16 528.545 304.493 529.878 303.64C531.211 302.787 532.811 302.04 534.678 301.4C536.598 300.707 538.171 300.413 539.398 300.52C540.358 300.573 540.838 302.947 540.838 307.64C540.838 308.76 540.731 311.453 540.518 315.72C540.465 319.987 540.385 325.533 540.278 332.36C540.225 339.187 540.198 344.413 540.198 348.04C540.198 350.92 540.278 353.347 540.438 355.32C540.598 357.293 540.918 358.973 541.398 360.36H552.838C552.785 358.12 552.838 355.613 552.998 352.84L553.078 350.36C553.665 331.853 553.958 320.68 553.958 316.84C553.958 313.64 553.825 311.32 553.558 309.88C553.345 308.44 552.731 307.027 551.718 305.64C551.398 305.16 551.878 304.493 553.158 303.64C554.491 302.787 556.091 302.04 557.958 301.4C559.878 300.707 561.451 300.413 562.678 300.52C563.638 300.573 564.118 303.027 564.118 307.88C564.118 309.267 564.065 310.973 563.958 313L563.878 315.72C563.825 317.373 563.745 322.04 563.638 329.72C563.531 337.4 563.478 343.32 563.478 347.48C563.478 351.373 563.611 354.547 563.878 357C564.145 359.4 564.785 361.267 565.798 362.6ZM599.216 340.04C601.19 340.413 602.176 341.907 602.176 344.52C602.176 345.96 601.936 347.347 601.456 348.68C600.443 352.147 598.683 354.973 596.176 357.16C593.616 359.4 590.63 361.32 587.216 362.92C583.856 364.52 580.656 365.347 577.616 365.4C577.403 365.4 577.243 365.373 577.136 365.32C576.87 365.32 576.736 365.293 576.736 365.24C576.363 363.533 575.776 361.827 574.976 360.12C574.176 358.413 573.136 356.467 571.856 354.28C569.883 350.92 568.55 348.28 567.856 346.36C565.99 341.187 565.056 336.147 565.056 331.24C565.056 328.893 565.243 326.707 565.616 324.68C566.203 321.533 567.243 318.573 568.736 315.8C570.23 312.973 572.123 310.6 574.416 308.68C577.616 306.12 581.19 304.147 585.136 302.76C589.136 301.32 593.11 300.68 597.056 300.84C597.27 300.84 597.376 301.08 597.376 301.56V301.88C597.323 303.907 596.736 307.027 595.616 311.24C594.496 315.4 593.643 318.173 593.056 319.56C592.736 320.36 592.31 320.76 591.776 320.76C591.456 320.76 591.19 320.6 590.976 320.28C590.763 319.907 590.63 319.427 590.576 318.84C590.256 313.72 588.95 309.32 586.656 305.64C585.27 306.067 583.856 306.813 582.416 307.88C580.976 308.893 579.723 310.253 578.656 311.96C577.376 314.093 576.416 316.467 575.776 319.08C575.19 321.64 574.896 324.253 574.896 326.92C574.896 327.773 574.923 328.387 574.976 328.76L575.456 328.44C577.27 327.373 579.403 326.6 581.856 326.12C584.31 325.64 586.763 325.4 589.216 325.4C591.296 325.4 593.056 325.56 594.496 325.88C595.99 326.147 596.736 326.493 596.736 326.92C596.736 330.227 595.003 333.533 591.536 336.84C590.79 337.587 590.23 337.96 589.856 337.96C589.323 337.96 588.976 337.347 588.816 336.12C588.336 332.28 585.776 330.36 581.136 330.36C579.216 330.36 577.216 330.653 575.136 331.24C575.67 336.04 577.083 341 579.376 346.12L581.936 350.76C584.283 354.6 585.776 357.747 586.416 360.2C587.11 359.827 588.043 359.053 589.216 357.88C590.71 356.173 591.696 353.747 592.176 350.6C592.23 350.28 592.256 349.747 592.256 349C592.256 346.44 591.483 345.027 589.936 344.76C589.456 344.653 589.696 344.253 590.656 343.56C591.67 342.813 592.416 342.333 592.896 342.12C593.163 342.013 593.723 341.747 594.576 341.32C595.483 340.84 596.336 340.493 597.136 340.28C597.936 340.013 598.63 339.933 599.216 340.04ZM635.292 342.92C636.625 345 637.825 347.667 638.892 350.92C640.012 354.173 640.572 356.867 640.572 359C640.572 360.6 640.225 361.587 639.532 361.96C636.225 363.987 632.839 365 629.372 365H607.212C606.892 365.053 606.412 365.08 605.772 365.08C605.239 365.08 604.839 365.053 604.572 365C603.612 364.947 603.132 362.707 603.132 358.28C603.132 357.107 603.212 354.44 603.372 350.28C603.959 332.947 604.252 322.2 604.252 318.04C604.252 314.307 604.065 311.32 603.692 309.08C603.319 306.84 602.572 304.947 601.452 303.4C601.025 302.813 601.985 302.28 604.332 301.8C606.679 301.267 608.999 301 611.292 301C611.505 300.947 611.745 300.92 612.012 300.92H634.012C635.292 300.92 635.932 301.133 635.932 301.56C635.932 303.48 635.372 306.333 634.252 310.12C633.185 313.907 632.305 316.707 631.612 318.52C631.292 319.373 630.865 319.8 630.332 319.8C630.012 319.8 629.719 319.64 629.452 319.32C629.239 319 629.105 318.52 629.052 317.88C628.839 313.4 627.639 309.293 625.452 305.56H617.612H614.332C614.385 307.32 614.359 309.773 614.252 312.92C614.199 313.667 614.172 314.573 614.172 315.64C614.119 319.213 614.039 324.04 613.932 330.12C613.825 336.2 613.772 341.56 613.772 346.2C613.772 349.613 613.825 352.413 613.932 354.6C614.092 356.733 614.412 358.573 614.892 360.12H630.332C630.279 359.8 630.092 359 629.772 357.72C629.505 356.44 628.999 354.867 628.252 353C627.559 351.08 626.625 349.213 625.452 347.4C624.332 345.64 623.319 344.227 622.412 343.16C621.559 342.04 620.545 340.84 619.372 339.56C618.359 338.44 617.612 337.56 617.132 336.92C616.652 336.227 616.225 335.373 615.852 334.36C615.692 333.933 615.612 333.507 615.612 333.08C615.612 332.227 615.905 331.373 616.492 330.52C617.132 329.613 618.092 328.813 619.372 328.12C622.679 326.307 624.972 325.4 626.252 325.4C626.465 325.4 626.679 325.453 626.892 325.56C627.052 325.667 626.972 325.853 626.652 326.12C626.332 326.387 626.039 326.76 625.772 327.24C625.559 327.667 625.505 328.387 625.612 329.4C625.665 330.307 626.039 331.267 626.732 332.28C627.479 333.293 628.652 334.707 630.252 336.52C632.439 338.92 634.119 341.053 635.292 342.92ZM678.437 363.32C678.864 363.907 677.85 364.467 675.397 365C672.997 365.48 670.624 365.72 668.277 365.72L666.917 365.64C665.957 365.587 665.477 363.347 665.477 358.92C665.477 357.64 665.557 354.84 665.717 350.52C665.984 343.48 666.144 338.36 666.197 335.16H651.797C651.744 339 651.717 343.16 651.717 347.64C651.717 351.64 651.85 354.92 652.117 357.48C652.384 360.04 653.024 361.987 654.037 363.32C654.464 363.907 653.45 364.467 650.997 365C648.597 365.48 646.224 365.72 643.877 365.72L642.517 365.64C641.557 365.587 641.077 363.267 641.077 358.68C641.077 357.4 641.157 354.68 641.317 350.52L641.477 346.84C641.53 344.867 641.664 340.333 641.877 333.24C642.144 326.147 642.277 321.16 642.277 318.28C642.277 314.493 642.144 311.853 641.877 310.36C641.664 308.813 640.997 307.293 639.877 305.8C639.557 305.32 640.064 304.653 641.397 303.8C642.73 302.947 644.33 302.2 646.197 301.56C648.117 300.867 649.69 300.573 650.917 300.68C651.877 300.733 652.357 303.107 652.357 307.8C652.357 308.92 652.25 311.613 652.037 315.88L651.877 330.44H666.357L666.597 317.08C666.597 313.827 666.464 311.48 666.197 310.04C665.984 308.6 665.344 307.187 664.277 305.8C663.957 305.32 664.437 304.653 665.717 303.8C667.05 302.947 668.65 302.2 670.517 301.56C672.437 300.867 674.01 300.573 675.237 300.68C676.197 300.733 676.677 303.24 676.677 308.2C676.677 310.28 676.597 312.84 676.437 315.88L676.037 346.44C676.037 350.813 676.17 354.36 676.437 357.08C676.704 359.8 677.37 361.88 678.437 363.32ZM714.073 319.32C715.886 323.747 716.793 328.36 716.793 333.16C716.793 333.96 716.74 335.107 716.633 336.6C716.1 342.84 714.42 347.933 711.593 351.88C708.393 356.36 703.673 360.04 697.433 362.92C696.1 363.72 694.42 364.413 692.393 365C690.42 365.64 689.406 365.8 689.353 365.48C688.873 363.72 688.233 362.04 687.433 360.44C686.633 358.787 685.593 356.84 684.313 354.6C682.233 350.973 680.766 348.013 679.913 345.72C678.473 341.987 677.753 337.933 677.753 333.56C677.753 331.693 677.86 330.013 678.073 328.52C678.926 321.693 680.846 316.36 683.833 312.52C686.073 309.64 688.9 307.24 692.313 305.32C695.726 303.4 699.46 301.933 703.513 300.92C703.94 300.813 704.26 300.76 704.473 300.76C704.953 300.76 705.22 300.813 705.273 300.92C705.7 302.627 706.286 304.28 707.033 305.88C707.78 307.427 708.846 309.4 710.233 311.8C710.5 312.28 711.06 313.293 711.913 314.84C712.766 316.387 713.486 317.88 714.073 319.32ZM704.633 350.44C706.18 346.44 706.953 342.147 706.953 337.56C706.953 331.853 705.646 326.333 703.033 321C702.18 319.293 701.3 317.72 700.393 316.28C700.18 315.907 699.7 315.053 698.953 313.72C698.206 312.333 697.54 311.053 696.953 309.88C696.42 308.653 695.993 307.507 695.673 306.44C694.98 307.027 694.393 307.64 693.913 308.28C692.366 310.307 691.166 312.44 690.313 314.68C688.553 319.213 687.673 324.173 687.673 329.56C687.673 334.84 688.846 339.907 691.193 344.76C691.62 345.613 692.606 347.427 694.153 350.2C695.006 351.693 695.86 353.267 696.713 354.92C697.566 356.573 698.233 358.12 698.713 359.56C701.113 357.373 703.086 354.333 704.633 350.44ZM750.182 340.04C752.155 340.413 753.142 341.907 753.142 344.52C753.142 345.96 752.902 347.347 752.422 348.68C751.409 352.147 749.649 354.973 747.142 357.16C744.582 359.4 741.595 361.32 738.182 362.92C734.822 364.52 731.622 365.347 728.582 365.4C728.369 365.4 728.209 365.373 728.102 365.32C727.835 365.32 727.702 365.293 727.702 365.24C727.329 363.533 726.742 361.827 725.942 360.12C725.142 358.413 724.102 356.467 722.822 354.28C720.849 350.92 719.515 348.28 718.822 346.36C716.955 341.187 716.022 336.147 716.022 331.24C716.022 328.893 716.209 326.707 716.582 324.68C717.169 321.533 718.209 318.573 719.702 315.8C721.195 312.973 723.089 310.6 725.382 308.68C728.582 306.12 732.155 304.147 736.102 302.76C740.102 301.32 744.075 300.68 748.022 300.84C748.235 300.84 748.342 301.08 748.342 301.56V301.88C748.289 303.907 747.702 307.027 746.582 311.24C745.462 315.4 744.609 318.173 744.022 319.56C743.702 320.36 743.275 320.76 742.742 320.76C742.422 320.76 742.155 320.6 741.942 320.28C741.729 319.907 741.595 319.427 741.542 318.84C741.222 313.72 739.915 309.32 737.622 305.64C736.235 306.067 734.822 306.813 733.382 307.88C731.942 308.893 730.689 310.253 729.622 311.96C728.342 314.093 727.382 316.467 726.742 319.08C726.155 321.64 725.862 324.253 725.862 326.92C725.862 327.773 725.889 328.387 725.942 328.76L726.422 328.44C728.235 327.373 730.369 326.6 732.822 326.12C735.275 325.64 737.729 325.4 740.182 325.4C742.262 325.4 744.022 325.56 745.462 325.88C746.955 326.147 747.702 326.493 747.702 326.92C747.702 330.227 745.969 333.533 742.502 336.84C741.755 337.587 741.195 337.96 740.822 337.96C740.289 337.96 739.942 337.347 739.782 336.12C739.302 332.28 736.742 330.36 732.102 330.36C730.182 330.36 728.182 330.653 726.102 331.24C726.635 336.04 728.049 341 730.342 346.12L732.902 350.76C735.249 354.6 736.742 357.747 737.382 360.2C738.075 359.827 739.009 359.053 740.182 357.88C741.675 356.173 742.662 353.747 743.142 350.6C743.195 350.28 743.222 349.747 743.222 349C743.222 346.44 742.449 345.027 740.902 344.76C740.422 344.653 740.662 344.253 741.622 343.56C742.635 342.813 743.382 342.333 743.862 342.12C744.129 342.013 744.689 341.747 745.542 341.32C746.449 340.84 747.302 340.493 748.102 340.28C748.902 340.013 749.595 339.933 750.182 340.04ZM823.823 342.92C825.156 345 826.356 347.667 827.423 350.92C828.543 354.173 829.103 356.867 829.103 359C829.103 360.6 828.756 361.587 828.063 361.96C824.756 363.987 821.37 365 817.903 365H795.743C795.423 365.053 794.943 365.08 794.303 365.08C793.77 365.08 793.37 365.053 793.103 365C792.143 364.947 791.663 362.707 791.663 358.28C791.663 357.107 791.743 354.44 791.903 350.28C792.49 332.947 792.783 322.2 792.783 318.04C792.783 314.307 792.596 311.32 792.223 309.08C791.85 306.84 791.103 304.947 789.983 303.4C789.556 302.813 790.516 302.28 792.863 301.8C795.21 301.267 797.53 301 799.823 301C800.036 300.947 800.276 300.92 800.543 300.92H822.543C823.823 300.92 824.463 301.133 824.463 301.56C824.463 303.48 823.903 306.333 822.783 310.12C821.716 313.907 820.836 316.707 820.143 318.52C819.823 319.373 819.396 319.8 818.863 319.8C818.543 319.8 818.25 319.64 817.983 319.32C817.77 319 817.636 318.52 817.583 317.88C817.37 313.4 816.17 309.293 813.983 305.56H806.143H802.863C802.916 307.32 802.89 309.773 802.783 312.92C802.73 313.667 802.703 314.573 802.703 315.64C802.65 319.213 802.57 324.04 802.463 330.12C802.356 336.2 802.303 341.56 802.303 346.2C802.303 349.613 802.356 352.413 802.463 354.6C802.623 356.733 802.943 358.573 803.423 360.12H818.863C818.81 359.8 818.623 359 818.303 357.72C818.036 356.44 817.53 354.867 816.783 353C816.09 351.08 815.156 349.213 813.983 347.4C812.863 345.64 811.85 344.227 810.943 343.16C810.09 342.04 809.076 340.84 807.903 339.56C806.89 338.44 806.143 337.56 805.663 336.92C805.183 336.227 804.756 335.373 804.383 334.36C804.223 333.933 804.143 333.507 804.143 333.08C804.143 332.227 804.436 331.373 805.023 330.52C805.663 329.613 806.623 328.813 807.903 328.12C811.21 326.307 813.503 325.4 814.783 325.4C814.996 325.4 815.21 325.453 815.423 325.56C815.583 325.667 815.503 325.853 815.183 326.12C814.863 326.387 814.57 326.76 814.303 327.24C814.09 327.667 814.036 328.387 814.143 329.4C814.196 330.307 814.57 331.267 815.263 332.28C816.01 333.293 817.183 334.707 818.783 336.52C820.97 338.92 822.65 341.053 823.823 342.92ZM867.208 353.32C867.955 357.64 868.701 360.333 869.448 361.4C870.248 362.467 870.648 363.08 870.648 363.24C870.755 363.667 870.168 364.067 868.888 364.44C867.661 364.813 866.355 365.08 864.968 365.24C862.995 365.507 861.555 365.64 860.648 365.64C859.048 365.64 858.141 365.347 857.928 364.76C857.768 364.28 857.608 363.187 857.448 361.48C857.128 358.387 856.675 355.373 856.088 352.44C855.021 346.893 853.635 341.347 851.928 335.8C850.221 330.2 848.488 325.48 846.728 321.64C842.301 326.387 839.608 334.333 838.648 345.48C838.541 347.08 838.488 348.36 838.488 349.32C838.488 352.2 838.728 354.92 839.208 357.48C839.741 359.987 840.461 361.88 841.368 363.16C841.688 363.587 841.155 364.013 839.768 364.44C838.435 364.813 836.755 365.107 834.728 365.32C832.755 365.587 831.128 365.667 829.848 365.56C828.835 365.507 828.328 363.107 828.328 358.36C828.328 355 828.488 352.333 828.808 350.36C829.235 347.373 829.848 344.28 830.648 341.08C831.448 337.88 832.995 334.147 835.288 329.88C837.635 325.56 840.888 321.64 845.048 318.12C843.875 315.507 842.995 313.32 842.408 311.56C841.875 309.8 841.608 308.253 841.608 306.92C841.608 305.64 842.221 304.547 843.448 303.64C844.728 302.68 846.035 301.96 847.368 301.48C850.195 300.467 851.715 300.173 851.928 300.6C851.981 300.76 851.955 301.16 851.848 301.8C851.795 302.387 851.795 303.08 851.848 303.88C851.848 306.227 853.715 311.693 857.448 320.28C858.888 323.64 860.301 327.64 861.688 332.28C863.128 336.867 864.355 341.187 865.368 345.24C866.381 349.293 866.995 351.987 867.208 353.32ZM920.598 318.28C923.105 323.56 924.358 328.573 924.358 333.32C924.358 333.907 924.305 334.84 924.198 336.12C923.505 342.2 921.665 347.533 918.678 352.12C916.758 355 914.358 357.453 911.478 359.48C908.651 361.507 905.398 363.267 901.718 364.76C900.278 365.347 899.211 365.64 898.518 365.64C898.091 365.64 897.878 365.507 897.878 365.24V364.92C897.611 362.893 897.078 360.947 896.278 359.08C895.478 357.213 894.358 355 892.918 352.44C891.851 350.52 891.078 349.08 890.598 348.12C888.198 343.267 886.971 338.387 886.918 333.48C886.705 333.64 886.331 333.907 885.798 334.28C884.198 335.773 883.131 337.373 882.598 339.08C882.065 340.733 881.771 342.627 881.718 344.76V346.52C881.718 351.053 881.825 354.653 882.038 357.32C882.305 359.933 882.971 361.96 884.038 363.4C884.465 363.987 883.451 364.52 880.998 365C878.545 365.533 876.171 365.8 873.878 365.8L872.518 365.72C871.558 365.667 871.078 363.427 871.078 359C871.078 357.72 871.158 354.92 871.318 350.6C871.905 332.093 872.198 320.92 872.198 317.08C872.198 313.88 872.065 311.56 871.798 310.12C871.585 308.68 870.971 307.267 869.958 305.88C869.585 305.4 870.065 304.733 871.398 303.88C872.731 303.027 874.331 302.28 876.198 301.64C878.118 300.947 879.691 300.653 880.918 300.76C881.878 300.813 882.358 303.267 882.358 308.12C882.358 309.507 882.305 311.213 882.198 313.24L882.118 315.96C882.011 317.24 881.905 322.68 881.798 332.28C883.398 331.213 885.158 330.307 887.078 329.56C887.878 323.8 889.691 318.733 892.518 314.36C894.438 311.427 896.811 308.973 899.638 307C902.465 304.973 905.745 303.213 909.478 301.72C911.078 301.08 912.145 300.76 912.678 300.76C913.105 300.76 913.318 300.92 913.318 301.24L913.398 301.48C913.665 303.507 914.171 305.453 914.918 307.32C915.718 309.187 916.838 311.4 918.278 313.96C919.345 315.88 920.118 317.32 920.598 318.28ZM911.638 350.76C913.558 346.227 914.518 341.667 914.518 337.08C914.465 334.36 914.011 331.64 913.158 328.92C912.305 326.2 911.131 323.4 909.638 320.52L908.438 318.36C907.265 316.333 906.305 314.547 905.558 313C904.865 311.453 904.331 309.88 903.958 308.28C903.798 308.44 903.611 308.68 903.398 309C901.798 311.08 900.518 313.32 899.558 315.72C897.638 320.147 896.678 324.707 896.678 329.4C896.838 334.467 898.491 339.987 901.638 345.96C902.278 347.133 902.731 348.013 902.998 348.6C904.065 350.467 904.945 352.147 905.638 353.64C906.331 355.133 906.865 356.653 907.238 358.2L907.878 357.4C909.425 355.373 910.678 353.16 911.638 350.76ZM972.978 360.2C974.204 360.2 974.818 360.6 974.818 361.4V361.48C974.818 363.453 974.231 366.68 973.058 371.16C971.938 375.64 971.084 378.627 970.498 380.12C970.178 380.92 969.751 381.32 969.218 381.32C968.898 381.32 968.604 381.16 968.338 380.84C968.124 380.52 967.991 380.04 967.938 379.4C967.671 374.067 966.098 369.267 963.218 365H935.218C934.044 366.6 932.978 368.627 932.018 371.08C931.111 373.533 930.578 376.307 930.418 379.4C930.364 380.68 929.964 381.32 929.218 381.32C928.684 381.32 928.258 380.92 927.938 380.12C927.191 378.413 926.284 375.853 925.218 372.44C924.151 369.027 923.591 366.36 923.538 364.44C923.538 364.387 923.538 364.333 923.538 364.28C923.591 364.227 923.618 364.2 923.618 364.2C923.884 363.72 924.578 363.187 925.698 362.6C926.818 361.96 928.151 361.427 929.698 361C929.644 360.467 929.618 359.613 929.618 358.44C929.618 355.347 929.804 352.6 930.178 350.2C930.604 347.107 931.191 343.987 931.938 340.84C932.738 337.693 934.311 333.987 936.658 329.72C939.004 325.4 942.258 321.48 946.418 317.96C945.191 315.133 944.284 312.867 943.698 311.16C943.164 309.453 942.924 307.933 942.978 306.6C943.031 305.32 943.671 304.253 944.898 303.4C946.124 302.493 947.404 301.8 948.738 301.32C950.604 300.627 951.911 300.28 952.658 300.28C953.031 300.28 953.244 300.36 953.298 300.52C953.351 300.627 953.324 301 953.218 301.64C953.164 302.227 953.164 302.92 953.218 303.72C953.218 306.173 955.084 311.64 958.818 320.12C960.898 324.92 962.924 330.92 964.898 338.12C966.871 345.32 968.098 350.333 968.578 353.16C969.111 356.093 969.751 358.44 970.498 360.2H972.978ZM940.018 345.32C939.911 346.92 939.858 348.173 939.858 349.08C939.858 353.613 940.418 357.32 941.538 360.2H958.658C958.284 357.16 957.884 354.52 957.458 352.28C956.284 346.573 954.871 340.973 953.218 335.48C951.564 329.933 949.858 325.293 948.098 321.56C943.724 326.147 941.031 334.067 940.018 345.32ZM1011.43 360.44C1014.69 360.547 1016.31 360.92 1016.31 361.56C1016.31 363.48 1015.73 366.68 1014.55 371.16C1013.43 375.693 1012.58 378.68 1011.99 380.12C1011.67 380.92 1011.25 381.32 1010.71 381.32C1010.39 381.32 1010.1 381.16 1009.83 380.84C1009.62 380.52 1009.49 380.04 1009.43 379.4C1009.27 376.413 1008.74 373.693 1007.83 371.24C1006.98 368.84 1006.02 366.76 1004.95 365H977.914H976.634C975.674 364.84 975.194 362.653 975.194 358.44C975.194 357.427 975.247 355.907 975.354 353.88L975.434 350.36L975.594 346.68C975.647 344.707 975.78 340.173 975.994 333.08C976.26 325.987 976.394 321 976.394 318.12C976.394 314.333 976.26 311.693 975.994 310.2C975.78 308.653 975.14 307.133 974.074 305.64C973.754 305.16 974.234 304.493 975.514 303.64C976.847 302.787 978.447 302.04 980.314 301.4C982.234 300.707 983.807 300.413 985.034 300.52C985.994 300.573 986.474 303.027 986.474 307.88C986.474 309.267 986.42 310.973 986.314 313L986.234 315.72C986.18 317.427 986.1 322.333 985.994 330.44C985.887 338.547 985.834 344.413 985.834 348.04C985.834 350.92 985.914 353.347 986.074 355.32C986.234 357.24 986.554 358.92 987.034 360.36H999.594C999.54 358.067 999.594 355.533 999.754 352.76L999.834 350.36C1000.42 331.853 1000.71 320.68 1000.71 316.84C1000.71 313.64 1000.58 311.32 1000.31 309.88C1000.1 308.44 999.487 307.027 998.474 305.64C998.154 305.16 998.634 304.493 999.914 303.64C1001.25 302.787 1002.85 302.04 1004.71 301.4C1006.63 300.707 1008.21 300.413 1009.43 300.52C1010.39 300.573 1010.87 303.027 1010.87 307.88C1010.87 309.267 1010.82 310.973 1010.71 313L1010.63 315.72C1010.58 317.373 1010.5 321.72 1010.39 328.76C1010.29 335.8 1010.23 341.64 1010.23 346.28C1010.23 349.747 1010.29 352.573 1010.39 354.76C1010.55 356.947 1010.9 358.84 1011.43 360.44ZM1049.7 340.04C1051.68 340.413 1052.66 341.907 1052.66 344.52C1052.66 345.96 1052.42 347.347 1051.94 348.68C1050.93 352.147 1049.17 354.973 1046.66 357.16C1044.1 359.4 1041.12 361.32 1037.7 362.92C1034.34 364.52 1031.14 365.347 1028.1 365.4C1027.89 365.4 1027.73 365.373 1027.62 365.32C1027.36 365.32 1027.22 365.293 1027.22 365.24C1026.85 363.533 1026.26 361.827 1025.46 360.12C1024.66 358.413 1023.62 356.467 1022.34 354.28C1020.37 350.92 1019.04 348.28 1018.34 346.36C1016.48 341.187 1015.54 336.147 1015.54 331.24C1015.54 328.893 1015.73 326.707 1016.1 324.68C1016.69 321.533 1017.73 318.573 1019.22 315.8C1020.72 312.973 1022.61 310.6 1024.9 308.68C1028.1 306.12 1031.68 304.147 1035.62 302.76C1039.62 301.32 1043.6 300.68 1047.54 300.84C1047.76 300.84 1047.86 301.08 1047.86 301.56V301.88C1047.81 303.907 1047.22 307.027 1046.1 311.24C1044.98 315.4 1044.13 318.173 1043.54 319.56C1043.22 320.36 1042.8 320.76 1042.26 320.76C1041.94 320.76 1041.68 320.6 1041.46 320.28C1041.25 319.907 1041.12 319.427 1041.06 318.84C1040.74 313.72 1039.44 309.32 1037.14 305.64C1035.76 306.067 1034.34 306.813 1032.9 307.88C1031.46 308.893 1030.21 310.253 1029.14 311.96C1027.86 314.093 1026.9 316.467 1026.26 319.08C1025.68 321.64 1025.38 324.253 1025.38 326.92C1025.38 327.773 1025.41 328.387 1025.46 328.76L1025.94 328.44C1027.76 327.373 1029.89 326.6 1032.34 326.12C1034.8 325.64 1037.25 325.4 1039.7 325.4C1041.78 325.4 1043.54 325.56 1044.98 325.88C1046.48 326.147 1047.22 326.493 1047.22 326.92C1047.22 330.227 1045.49 333.533 1042.02 336.84C1041.28 337.587 1040.72 337.96 1040.34 337.96C1039.81 337.96 1039.46 337.347 1039.3 336.12C1038.82 332.28 1036.26 330.36 1031.62 330.36C1029.7 330.36 1027.7 330.653 1025.62 331.24C1026.16 336.04 1027.57 341 1029.86 346.12L1032.42 350.76C1034.77 354.6 1036.26 357.747 1036.9 360.2C1037.6 359.827 1038.53 359.053 1039.7 357.88C1041.2 356.173 1042.18 353.747 1042.66 350.6C1042.72 350.28 1042.74 349.747 1042.74 349C1042.74 346.44 1041.97 345.027 1040.42 344.76C1039.94 344.653 1040.18 344.253 1041.14 343.56C1042.16 342.813 1042.9 342.333 1043.38 342.12C1043.65 342.013 1044.21 341.747 1045.06 341.32C1045.97 340.84 1046.82 340.493 1047.62 340.28C1048.42 340.013 1049.12 339.933 1049.7 340.04Z" fill="#890F0F"/>
<path d="M389.487 508.68C396.063 508.68 400.431 512.472 400.431 519C400.431 531.24 382.527 525.816 381.999 539.16H400.863V543H377.919V540.456C377.919 523.272 396.591 529.368 396.591 518.808C396.591 514.68 393.711 512.328 389.487 512.328C384.639 512.328 381.759 515.544 381.759 521.448H377.919C377.919 513.48 382.479 508.68 389.487 508.68ZM406.205 541.272C406.205 539.88 407.165 538.92 408.557 538.92C410.093 538.92 411.053 539.88 411.053 541.272C411.053 542.808 410.093 543.72 408.557 543.72C407.165 543.72 406.205 542.808 406.205 541.272ZM432.696 543V519H436.536V529.128H453.048V519H456.888V543H453.048V532.824H436.536V543H432.696ZM483.012 543H479.7L479.22 538.056C477.3 541.608 473.844 543.72 469.764 543.72C463.188 543.72 458.196 538.296 458.196 531.048C458.196 523.704 463.188 518.28 469.764 518.28C473.844 518.28 477.252 520.392 479.172 523.944L479.7 519H483.012V543ZM462.036 531C462.036 536.328 465.732 540.216 470.772 540.216C475.716 540.216 479.172 536.472 479.172 531C479.172 525.576 475.716 521.736 470.772 521.736C465.636 521.736 462.036 525.576 462.036 531ZM510.889 531L521.257 543H516.745L508.057 532.824H503.689V543H499.849V532.824H495.529L486.793 543H482.329L492.697 531L483.433 519H487.801L495.577 529.272H499.849V519H503.689V529.272H507.961L515.785 519H520.201L510.889 531ZM524.163 524.76V543H520.611V519H524.595L533.763 537.72L542.979 519H546.915V543H543.363V524.952L534.867 543H532.659L524.163 524.76ZM573.945 543H570.105V524.904L553.257 543H550.041V519H553.881V537L570.777 519H573.945V543ZM584.667 543V519H588.507V529.128H605.019V519H608.859V543H605.019V532.824H588.507V543H584.667ZM634.983 543H631.671L631.191 538.056C629.271 541.608 625.815 543.72 621.735 543.72C615.159 543.72 610.167 538.296 610.167 531.048C610.167 523.704 615.159 518.28 621.735 518.28C625.815 518.28 629.223 520.392 631.143 523.944L631.671 519H634.983V543ZM614.007 531C614.007 536.328 617.703 540.216 622.743 540.216C627.687 540.216 631.143 536.472 631.143 531C631.143 525.576 627.687 521.736 622.743 521.736C617.607 521.736 614.007 525.576 614.007 531ZM649.515 532.824V543H645.675V519H649.515V529.272H653.787L661.611 519H665.931L656.667 531L667.083 543H662.571L653.883 532.824H649.515ZM666.48 543V519H670.32V529.128H686.832V519H690.672V543H686.832V532.824H670.32V543H666.48ZM692.028 531.048C692.028 523.704 697.452 518.28 704.652 518.28C712.044 518.28 717.42 523.464 717.42 531.048C717.42 538.536 712.044 543.72 704.652 543.72C697.452 543.72 692.028 538.296 692.028 531.048ZM695.868 531C695.868 536.232 699.66 540.072 704.652 540.072C709.98 540.072 713.58 536.424 713.58 531C713.58 525.576 709.932 521.88 704.652 521.88C699.612 521.88 695.868 525.768 695.868 531ZM718.684 519H742.012V543H738.172V522.6H722.524V543H718.684V519ZM748.204 532.824V543H744.364V519H748.204V529.272H752.476L760.3 519H764.62L755.356 531L765.772 543H761.26L752.572 532.824H748.204ZM776.593 552.456H772.561L775.825 543H769.633L761.473 519H765.409L772.273 539.016H777.169L784.033 519H787.921L776.593 552.456ZM818.964 543H815.124V524.904L798.276 543H795.06V519H798.9V537L815.796 519H818.964V543ZM831.894 531C831.894 536.328 835.59 540.216 840.63 540.216C844.614 540.216 847.782 537.96 849.03 534.552H853.014C851.43 540.072 846.774 543.72 840.63 543.72C833.43 543.72 828.054 538.296 828.054 531.048C828.054 523.704 833.382 518.28 840.63 518.28C846.726 518.28 851.382 521.88 852.966 527.4H848.982C847.686 524.04 844.566 521.736 840.63 521.736C835.59 521.736 831.894 525.72 831.894 531ZM852.656 539.64H856.256C858.08 536.184 858.992 532.44 858.992 528.024V519H877.616V539.64H882.128V549.24H878.48V543H856.208V549.24H852.656V539.64ZM860 539.64H874.016V522.312H862.592V528.024C862.592 532.44 861.728 536.232 860 539.64ZM906.336 532.104H885.552C885.984 537.048 889.392 540.648 893.952 540.648C897.312 540.648 900.048 538.92 901.632 536.184H905.568C903.6 540.84 899.328 543.72 893.952 543.72C886.896 543.72 881.664 538.296 881.664 531.048C881.664 523.704 886.8 518.28 893.952 518.28C901.248 518.28 906.384 523.464 906.384 531.048C906.384 531.384 906.336 531.72 906.336 532.104ZM885.552 529.896H902.496C902.064 524.856 898.704 521.448 893.952 521.448C889.392 521.448 885.984 524.952 885.552 529.896ZM910.75 532.968L912.622 519H932.926V543H929.086V522.6H915.982L914.59 533.256C913.726 540.888 911.182 543.72 905.422 543.72V540.216C908.686 540.216 910.078 538.296 910.75 532.968ZM959.198 543H955.886L955.406 538.056C953.486 541.608 950.03 543.72 945.95 543.72C939.374 543.72 934.382 538.296 934.382 531.048C934.382 523.704 939.374 518.28 945.95 518.28C950.03 518.28 953.438 520.392 955.358 523.944L955.886 519H959.198V543ZM938.222 531C938.222 536.328 941.918 540.216 946.958 540.216C951.902 540.216 955.358 536.472 955.358 531C955.358 525.576 951.902 521.736 946.958 521.736C941.822 521.736 938.222 525.576 938.222 531ZM974.259 516.072C970.035 516.072 966.051 513.432 966.051 509.4H969.123C969.123 511.608 971.379 513.528 974.259 513.528C977.187 513.528 979.395 511.656 979.395 509.4H982.419C982.419 513.096 978.963 516.072 974.259 516.072ZM986.115 543H982.275V524.904L965.427 543H962.211V519H966.051V537L982.947 519H986.115V543ZM995.205 530.472C995.205 522.984 1000.63 517.416 1008.26 516.984V509.4H1010.23V516.984C1017.86 517.416 1023.28 522.84 1023.28 530.472C1023.28 538.008 1017.86 543.48 1010.23 543.912V551.496H1008.26V543.912C1000.63 543.48 995.205 537.864 995.205 530.472ZM999.045 530.424C999.045 535.752 1002.88 539.784 1008.26 540.216V520.68C1002.88 521.112 999.045 525.096 999.045 530.424ZM1010.23 520.68V540.216C1015.75 539.784 1019.44 535.896 1019.44 530.424C1019.44 524.952 1015.75 521.064 1010.23 520.68ZM1023.04 531.048C1023.04 523.704 1028.46 518.28 1035.66 518.28C1043.06 518.28 1048.43 523.464 1048.43 531.048C1048.43 538.536 1043.06 543.72 1035.66 543.72C1028.46 543.72 1023.04 538.296 1023.04 531.048ZM1026.88 531C1026.88 536.232 1030.67 540.072 1035.66 540.072C1040.99 540.072 1044.59 536.424 1044.59 531C1044.59 525.576 1040.94 521.88 1035.66 521.88C1030.62 521.88 1026.88 525.768 1026.88 531ZM1056.48 543V522.6H1046.59V519H1070.26V522.6H1060.32V543H1056.48ZM1068.54 531.048C1068.54 523.704 1073.97 518.28 1081.17 518.28C1088.56 518.28 1093.93 523.464 1093.93 531.048C1093.93 538.536 1088.56 543.72 1081.17 543.72C1073.97 543.72 1068.54 538.296 1068.54 531.048ZM1072.38 531C1072.38 536.232 1076.17 540.072 1081.17 540.072C1086.49 540.072 1090.09 536.424 1090.09 531C1090.09 525.576 1086.45 521.88 1081.17 521.88C1076.13 521.88 1072.38 525.768 1072.38 531ZM431.064 599.64H434.664C436.488 596.184 437.4 592.44 437.4 588.024V579H456.024V599.64H460.536V609.24H456.888V603H434.616V609.24H431.064V599.64ZM438.408 599.64H452.424V582.312H441V588.024C441 592.44 440.136 596.232 438.408 599.64ZM465.635 592.968L467.507 579H487.811V603H483.971V582.6H470.867L469.475 593.256C468.611 600.888 466.067 603.72 460.307 603.72V600.216C463.571 600.216 464.963 598.296 465.635 592.968ZM491.667 603H487.251L494.211 595.032C490.515 593.784 488.115 591.096 488.115 587.352C488.115 582.216 492.771 579 499.203 579H509.427V603H505.875V595.8H499.203C498.627 595.8 498.099 595.752 497.571 595.704L491.667 603ZM491.811 587.352C491.811 590.712 494.643 592.68 499.203 592.68H505.875V582.168H499.203C494.691 582.168 491.811 584.136 491.811 587.352ZM543.365 603H540.053L539.573 598.056C537.653 601.608 534.197 603.72 530.117 603.72C523.541 603.72 518.549 598.296 518.549 591.048C518.549 583.704 523.541 578.28 530.117 578.28C534.197 578.28 537.605 580.392 539.525 583.944L540.053 579H543.365V603ZM522.389 591C522.389 596.328 526.085 600.216 531.125 600.216C536.069 600.216 539.525 596.472 539.525 591C539.525 585.576 536.069 581.736 531.125 581.736C525.989 581.736 522.389 585.576 522.389 591ZM546.377 603V579H550.217V589.128H566.729V579H570.569V603H566.729V592.824H550.217V603H546.377ZM577.397 592.824V603H573.557V579H577.397V589.272H581.669L589.493 579H593.813L584.549 591L594.965 603H590.453L581.765 592.824H577.397ZM616.512 592.104H595.728C596.16 597.048 599.568 600.648 604.128 600.648C607.488 600.648 610.224 598.92 611.808 596.184H615.744C613.776 600.84 609.504 603.72 604.128 603.72C597.072 603.72 591.84 598.296 591.84 591.048C591.84 583.704 596.976 578.28 604.128 578.28C611.424 578.28 616.56 583.464 616.56 591.048C616.56 591.384 616.512 591.72 616.512 592.104ZM595.728 589.896H612.672C612.24 584.856 608.88 581.448 604.128 581.448C599.568 581.448 596.16 584.952 595.728 589.896ZM625.139 603V582.6H615.251V579H638.915V582.6H628.979V603H625.139ZM639.488 579H643.328V585.432H651.344C658.592 585.432 663.104 588.84 663.104 594.216C663.104 599.832 658.88 603 651.344 603H639.488V579ZM668.24 579H672.08V603H668.24V579ZM659.264 594.216C659.264 590.712 656.192 588.552 651.344 588.552H643.328V599.928H651.344C656.384 599.928 659.264 597.864 659.264 594.216Z" fill="#890F0F"/>
<path d="M380.603 430.456V426.712C384.251 426.616 387.371 425.464 390.059 423.4H393.227V453.208H400.715V457H381.899V453.208H389.387V428.296C386.939 429.64 383.915 430.36 380.603 430.456ZM405.205 455.272C405.205 453.88 406.165 452.92 407.557 452.92C409.093 452.92 410.053 453.88 410.053 455.272C410.053 456.808 409.093 457.72 407.557 457.72C406.165 457.72 405.205 456.808 405.205 455.272ZM430.064 453.64H433.664C435.488 450.184 436.4 446.44 436.4 442.024V433H455.024V453.64H459.536V463.24H455.888V457H433.616V463.24H430.064V453.64ZM437.408 453.64H451.424V436.312H440V442.024C440 446.44 439.136 450.232 437.408 453.64ZM459.072 445.048C459.072 437.704 464.496 432.28 471.696 432.28C479.088 432.28 484.464 437.464 484.464 445.048C484.464 452.536 479.088 457.72 471.696 457.72C464.496 457.72 459.072 452.296 459.072 445.048ZM462.912 445C462.912 450.232 466.704 454.072 471.696 454.072C477.024 454.072 480.624 450.424 480.624 445C480.624 439.576 476.976 435.88 471.696 435.88C466.656 435.88 462.912 439.768 462.912 445ZM509.701 445L520.069 457H515.557L506.869 446.824H502.501V457H498.661V446.824H494.341L485.605 457H481.141L491.509 445L482.245 433H486.613L494.389 443.272H498.661V433H502.501V443.272H506.773L514.597 433H519.013L509.701 445ZM517.791 453.64H521.391C523.215 450.184 524.127 446.44 524.127 442.024V433H542.751V453.64H547.263V463.24H543.615V457H521.343V463.24H517.791V453.64ZM525.135 453.64H539.151V436.312H527.727V442.024C527.727 446.44 526.863 450.232 525.135 453.64ZM572.57 457H568.73V438.904L551.882 457H548.666V433H552.506V451L569.402 433H572.57V457ZM577.82 445C577.82 450.328 581.516 454.216 586.556 454.216C590.54 454.216 593.708 451.96 594.956 448.552H598.94C597.356 454.072 592.7 457.72 586.556 457.72C579.356 457.72 573.98 452.296 573.98 445.048C573.98 437.704 579.308 432.28 586.556 432.28C592.652 432.28 597.308 435.88 598.892 441.4H594.908C593.612 438.04 590.492 435.736 586.556 435.736C581.516 435.736 577.82 439.72 577.82 445ZM600.214 433H604.054V439.432H612.07C619.318 439.432 623.83 442.84 623.83 448.216C623.83 453.832 619.606 457 612.07 457H600.214V433ZM619.99 448.216C619.99 444.712 616.918 442.552 612.07 442.552H604.054V453.928H612.07C617.11 453.928 619.99 451.864 619.99 448.216ZM632.87 433H656.198V457H652.358V436.6H636.71V457H632.87V433ZM656.918 445.048C656.918 437.704 662.342 432.28 669.542 432.28C676.934 432.28 682.31 437.464 682.31 445.048C682.31 452.536 676.934 457.72 669.542 457.72C662.342 457.72 656.918 452.296 656.918 445.048ZM660.758 445C660.758 450.232 664.55 454.072 669.542 454.072C674.87 454.072 678.47 450.424 678.47 445C678.47 439.576 674.822 435.88 669.542 435.88C664.502 435.88 660.758 439.768 660.758 445ZM684.294 457H679.878L686.838 449.032C683.142 447.784 680.742 445.096 680.742 441.352C680.742 436.216 685.398 433 691.83 433H702.054V457H698.502V449.8H691.83C691.254 449.8 690.726 449.752 690.198 449.704L684.294 457ZM684.438 441.352C684.438 444.712 687.27 446.68 691.83 446.68H698.502V436.168H691.83C687.318 436.168 684.438 438.136 684.438 441.352ZM705.176 457V433H716.6C721.976 433 725.576 435.496 725.576 439.144C725.576 441.64 723.656 443.752 720.728 444.76C724.424 445.576 726.68 447.64 726.68 450.52C726.68 454.36 722.6 457 716.6 457H705.176ZM722.12 439.576C722.12 437.224 719.912 435.736 716.6 435.736H708.728V443.56H716.6C719.672 443.56 722.12 441.832 722.12 439.576ZM723.128 450.232C723.128 447.784 720.632 446.152 716.6 446.152H708.728V454.216H716.6C720.536 454.216 723.128 452.68 723.128 450.232ZM731.786 446.968L733.658 433H753.962V457H750.122V436.6H737.018L735.626 447.256C734.762 454.888 732.218 457.72 726.458 457.72V454.216C729.722 454.216 731.114 452.296 731.786 446.968ZM780.138 446.104H759.354C759.786 451.048 763.194 454.648 767.754 454.648C771.114 454.648 773.85 452.92 775.434 450.184H779.37C777.402 454.84 773.13 457.72 767.754 457.72C760.698 457.72 755.466 452.296 755.466 445.048C755.466 437.704 760.602 432.28 767.754 432.28C775.05 432.28 780.186 437.464 780.186 445.048C780.186 445.384 780.138 445.72 780.138 446.104ZM759.354 443.896H776.298C775.866 438.856 772.506 435.448 767.754 435.448C763.194 435.448 759.786 438.952 759.354 443.896ZM781.607 457V433H785.447V443.128H801.959V433H805.799V457H801.959V446.824H785.447V457H781.607ZM832.691 457H828.851V438.904L812.003 457H808.787V433H812.627V451L829.523 433H832.691V457ZM836.452 457H832.036L838.996 449.032C835.3 447.784 832.9 445.096 832.9 441.352C832.9 436.216 837.556 433 843.988 433H854.212V457H850.66V449.8H843.988C843.412 449.8 842.884 449.752 842.356 449.704L836.452 457ZM836.596 441.352C836.596 444.712 839.428 446.68 843.988 446.68H850.66V436.168H843.988C839.476 436.168 836.596 438.136 836.596 441.352ZM865.734 457H861.318L868.278 449.032C864.582 447.784 862.182 445.096 862.182 441.352C862.182 436.216 866.838 433 873.27 433H883.494V457H879.942V449.8H873.27C872.694 449.8 872.166 449.752 871.638 449.704L865.734 457ZM865.878 441.352C865.878 444.712 868.71 446.68 873.27 446.68H879.942V436.168H873.27C868.758 436.168 865.878 438.136 865.878 441.352ZM884.984 445.336C884.984 435.304 886.232 431.176 889.112 428.008C893.624 423.016 899.432 426.088 905.384 421.288L907.112 424.024C900.968 429.16 896.024 426.136 892.232 430.312C890.456 432.328 889.496 435.16 889.112 439.048C890.984 436.12 894.2 434.104 897.992 434.104C904.472 434.104 909.176 439.096 909.176 445.336C909.176 452.632 904.664 457.72 897.032 457.72C889.544 457.72 884.984 452.248 884.984 445.336ZM897.032 454.072C902.456 454.072 905.336 450.28 905.336 445.336C905.336 440.92 901.928 437.272 897.032 437.272C892.184 437.272 888.824 441.112 888.824 445.336C888.824 450.28 891.656 454.072 897.032 454.072ZM913.836 446.968L915.708 433H936.012V457H932.172V436.6H919.068L917.676 447.256C916.812 454.888 914.268 457.72 908.508 457.72V454.216C911.772 454.216 913.164 452.296 913.836 446.968ZM937.516 445.048C937.516 437.704 942.94 432.28 950.14 432.28C957.532 432.28 962.908 437.464 962.908 445.048C962.908 452.536 957.532 457.72 950.14 457.72C942.94 457.72 937.516 452.296 937.516 445.048ZM941.356 445C941.356 450.232 945.148 454.072 950.14 454.072C955.468 454.072 959.068 450.424 959.068 445C959.068 439.576 955.42 435.88 950.14 435.88C945.1 435.88 941.356 439.768 941.356 445ZM982.42 438.76V433H986.26V457H982.42V446.44C980.644 449.512 977.716 451.384 974.164 451.384C968.02 451.384 963.844 446.392 963.844 438.76V433H967.684V438.76C967.684 444.136 970.66 447.784 975.076 447.784C979.396 447.784 982.42 444.04 982.42 438.76ZM993.223 446.824V457H989.383V433H993.223V443.272H997.495L1005.32 433H1009.64L1000.37 445L1010.79 457H1006.28L997.591 446.824H993.223ZM1032.43 457H1029.12L1028.64 452.056C1026.72 455.608 1023.27 457.72 1019.19 457.72C1012.61 457.72 1007.62 452.296 1007.62 445.048C1007.62 437.704 1012.61 432.28 1019.19 432.28C1023.27 432.28 1026.67 434.392 1028.59 437.944L1029.12 433H1032.43V457ZM1011.46 445C1011.46 450.328 1015.15 454.216 1020.19 454.216C1025.14 454.216 1028.59 450.472 1028.59 445C1028.59 439.576 1025.14 435.736 1020.19 435.736C1015.06 435.736 1011.46 439.576 1011.46 445Z" fill="#890F0F"/>
</g>
<defs>
<clipPath id="clip0_183_668">
<rect width="1440" height="900" fill="white"/>
</clipPath>
</defs>
</svg>
