<svg width="1267" height="282" viewBox="0 0 1267 282" fill="none" xmlns="http://www.w3.org/2000/svg">
<path d="M169 85.5V272" stroke="#181818" stroke-width="19" stroke-linecap="round"/>
<path d="M477.999 9.5V196" stroke="#181818" stroke-width="19" stroke-linecap="round"/>
<path d="M788 9.5V196" stroke="#181818" stroke-width="19" stroke-linecap="round"/>
<path d="M1097 85.5V272" stroke="#181818" stroke-width="19" stroke-linecap="round"/>
<path fill-rule="evenodd" clip-rule="evenodd" d="M634.173 19.5273C736.04 21.5034 967.542 42.4655 1089.77 111.013C1212.54 179.863 1257.61 139.701 1264.79 111.013C1272.26 134.254 1264.96 180.301 1175.99 178.558C1064.94 176.382 922.095 81.3498 634.173 90.8135V90.8584C633.948 90.8508 633.724 90.8434 633.5 90.8359C633.276 90.8434 633.051 90.8508 632.827 90.8584V90.8135C344.905 81.3498 202.057 176.382 91.0117 178.558C2.03664 180.301 -5.26315 134.254 2.20891 111.013C9.39371 139.701 54.4559 179.863 177.227 111.013C299.458 42.4655 530.96 21.5033 632.827 19.5273V19.5C633.051 19.504 633.275 19.5095 633.5 19.5137C633.725 19.5095 633.949 19.504 634.173 19.5V19.5273Z" fill="#181818"/>
</svg>
