<svg width="901" height="901" viewBox="0 0 901 901" fill="none" xmlns="http://www.w3.org/2000/svg">
<path d="M395.63 23.3228C429.303 3.55913 471.033 3.55912 504.706 23.3228C522.318 33.6595 542.901 37.7541 563.128 34.9438C601.801 29.5706 640.355 45.5405 663.901 76.686C676.217 92.9755 693.666 104.635 713.429 109.779C751.214 119.614 780.722 149.122 790.558 186.908C795.702 206.67 807.361 224.12 823.65 236.435C854.796 259.982 870.766 298.535 865.393 337.208C862.582 357.435 866.677 378.019 877.014 395.63C896.777 429.303 896.777 471.034 877.014 504.707C866.677 522.318 862.582 542.902 865.393 563.128C870.766 601.802 854.796 640.355 823.65 663.902C807.361 676.217 795.702 693.667 790.558 713.429C780.722 751.215 751.214 780.723 713.429 790.558C693.666 795.702 676.217 807.361 663.901 823.651C640.355 854.796 601.801 870.766 563.128 865.393C542.901 862.583 522.318 866.677 504.706 877.014C471.033 896.778 429.303 896.778 395.63 877.014C378.018 866.677 357.435 862.583 337.208 865.393C298.535 870.766 259.981 854.796 236.435 823.651C224.119 807.361 206.67 795.702 186.907 790.558C149.122 780.723 119.614 751.215 109.778 713.429C104.634 693.667 92.975 676.217 76.6855 663.902C45.54 640.355 29.5701 601.802 34.9434 563.128C37.7537 542.902 33.659 522.318 23.3223 504.707C3.55864 471.034 3.55864 429.303 23.3223 395.63C33.659 378.019 37.7537 357.435 34.9434 337.208C29.5701 298.535 45.54 259.982 76.6855 236.435C92.975 224.12 104.634 206.67 109.778 186.908C119.614 149.122 149.122 119.614 186.907 109.779C206.67 104.635 224.119 92.9755 236.435 76.686C259.981 45.5405 298.535 29.5706 337.208 34.9438C357.435 37.7541 378.018 33.6595 395.63 23.3228Z" fill="#890F0F" stroke="#E2E4EF" stroke-width="17"/>
<rect x="124.742" y="125.248" width="641.239" height="651.304" rx="320.62" fill="#181818"/>
</svg>
