<svg width="1512" height="982" viewBox="0 0 1512 982" fill="none" xmlns="http://www.w3.org/2000/svg">
<g clip-path="url(#clip0_182_526)">
<rect y="0.000244141" width="1512" height="748" fill="url(#paint0_linear_182_526)"/>
<rect width="1512" height="748" transform="matrix(1 1.74846e-07 1.74846e-07 -1 0 982)" fill="url(#paint1_linear_182_526)"/>
<path d="M1512.24 982.068L1451.36 852.706M1073.7 412.165L1171.5 416.364L1263.48 521.426L1196.49 602.413M1259.99 703.372L1390.48 723.345L1451.36 852.706M1259.99 703.372L1388.56 556.864L1349.88 436.409L1461.75 360.12L1277.71 301.712L1256.58 394.483M1259.99 703.372L1236.33 744.223M1196.49 602.413L1129.5 683.4L1236.33 744.223M1196.49 602.413L1080.18 531.396L1000.74 613.061L918.836 540.172L876.024 573.438M1451.36 852.706L1257.19 832.331L1188.21 920.565L1236.57 967.315M1236.33 744.223L1127.13 858.443L1050.66 754.322L966.961 812.42L854.263 698.371" stroke="#890F0F" stroke-width="18" stroke-linecap="round" stroke-linejoin="round"/>
</g>
<defs>
<linearGradient id="paint0_linear_182_526" x1="830.55" y1="-728.185" x2="790.871" y2="669.874" gradientUnits="userSpaceOnUse">
<stop offset="0.586538" stop-color="#181818"/>
<stop offset="1" stop-color="#181818" stop-opacity="0"/>
</linearGradient>
<linearGradient id="paint1_linear_182_526" x1="830.55" y1="-728.186" x2="790.871" y2="669.874" gradientUnits="userSpaceOnUse">
<stop offset="0.586538" stop-color="#181818"/>
<stop offset="1" stop-color="#181818" stop-opacity="0"/>
</linearGradient>
<clipPath id="clip0_182_526">
<rect width="1512" height="982" fill="white"/>
</clipPath>
</defs>
</svg>
