<svg width="1440" height="843" viewBox="0 0 1440 843" fill="none" xmlns="http://www.w3.org/2000/svg">
<g clip-path="url(#clip0_183_622)">
<rect width="1440" height="843" fill="#890F0F"/>
<rect width="1440" height="479" fill="url(#paint0_linear_183_622)"/>
<rect width="1440" height="479" transform="matrix(1 0 0 -1 0 843)" fill="url(#paint1_linear_183_622)"/>
<path d="M104.193 227.371C114.553 220.615 125.259 215.887 136.073 216.991C146.975 218.105 157.561 225.09 167.781 240.761L167.812 240.807L167.838 240.855C174.791 253.448 178.608 264.729 176.99 275.252C175.359 285.853 168.284 295.293 154.396 304.351C141.971 312.453 130.925 313.982 120.483 310.949C110.154 307.949 100.614 300.538 91.0182 291.217L90.9238 291.126L90.8474 291.02C80.4435 276.631 78.3392 264.116 81.7399 253.371C85.1111 242.719 93.7874 234.157 104.193 227.371Z" fill="#890F0F" stroke="#181818" stroke-width="3"/>
<path d="M91.2727 216.774L91.3991 216.7C92.0435 216.363 92.8483 216.538 93.2927 217.131L112.688 243.033C112.936 243.365 113.037 243.785 112.964 244.194C112.892 244.602 112.654 244.962 112.306 245.188L111.604 245.646C111.002 246.039 110.207 245.95 109.708 245.435L86.8003 221.824C86.4883 221.503 86.3367 221.058 86.3865 220.612C86.4363 220.167 86.6824 219.768 87.0576 219.523L91.2727 216.774Z" fill="#890F0F" stroke="#181818" stroke-width="3" stroke-linejoin="round"/>
<path d="M104.14 249.586C105.857 248.466 110.555 246.604 115.607 248.115C114.65 246.069 113.832 241.062 118.22 237.399" stroke="#181818" stroke-width="3" stroke-linecap="round" stroke-linejoin="round"/>
<path d="M1091.19 400.371C1101.55 393.615 1112.26 388.887 1123.07 389.991C1133.98 391.105 1144.56 398.09 1154.78 413.761L1154.81 413.807L1154.84 413.855C1161.79 426.448 1165.61 437.729 1163.99 448.252C1162.36 458.853 1155.28 468.293 1141.4 477.351C1128.97 485.453 1117.92 486.982 1107.48 483.949C1097.15 480.949 1087.61 473.538 1078.02 464.217L1077.92 464.126L1077.85 464.02C1067.44 449.631 1065.34 437.116 1068.74 426.371C1072.11 415.719 1080.79 407.157 1091.19 400.371Z" fill="#890F0F" stroke="#181818" stroke-width="3"/>
<path d="M1078.27 389.774L1078.4 389.7C1079.04 389.363 1079.85 389.538 1080.29 390.131L1099.69 416.033C1099.94 416.365 1100.04 416.785 1099.96 417.194C1099.89 417.602 1099.65 417.962 1099.31 418.188L1098.6 418.646C1098 419.039 1097.21 418.95 1096.71 418.435L1073.8 394.824C1073.49 394.503 1073.34 394.058 1073.39 393.612C1073.44 393.167 1073.68 392.768 1074.06 392.523L1078.27 389.774Z" fill="#890F0F" stroke="#181818" stroke-width="3" stroke-linejoin="round"/>
<path d="M1091.14 422.586C1092.86 421.466 1097.55 419.604 1102.61 421.115C1101.65 419.069 1100.83 414.062 1105.22 410.399" stroke="#181818" stroke-width="3" stroke-linecap="round" stroke-linejoin="round"/>
<path d="M145.614 466.371C135.254 459.615 124.548 454.887 113.734 455.991C102.831 457.105 92.2454 464.09 82.0254 479.761L81.9949 479.807L81.9683 479.855C75.0155 492.448 71.1985 503.729 72.8168 514.252C74.4473 524.853 81.5224 534.293 95.4108 543.351C107.835 551.453 118.882 552.982 129.324 549.949C139.653 546.949 149.192 539.538 158.788 530.217L158.883 530.126L158.959 530.02C169.363 515.631 171.467 503.116 168.067 492.371C164.696 481.719 156.019 473.157 145.614 466.371Z" fill="#890F0F" stroke="#181818" stroke-width="3"/>
<path d="M158.534 455.774L158.408 455.7C157.763 455.363 156.958 455.538 156.514 456.131L137.119 482.033C136.87 482.365 136.77 482.785 136.842 483.194C136.914 483.602 137.153 483.962 137.5 484.188L138.203 484.646C138.804 485.039 139.599 484.95 140.099 484.435L163.006 460.824C163.318 460.503 163.47 460.058 163.42 459.612C163.37 459.167 163.124 458.768 162.749 458.523L158.534 455.774Z" fill="#890F0F" stroke="#181818" stroke-width="3" stroke-linejoin="round"/>
<path d="M145.667 488.586C143.949 487.466 139.252 485.604 134.2 487.115C135.157 485.069 135.975 480.062 131.586 476.399" stroke="#181818" stroke-width="3" stroke-linecap="round" stroke-linejoin="round"/>
<path d="M324.919 354.416C317.279 349.434 309.308 345.894 301.215 346.72C293.034 347.556 285.157 352.797 277.603 364.38L277.572 364.426L277.546 364.474C272.421 373.756 269.56 382.15 270.77 390.024C271.993 397.975 277.298 405.002 287.564 411.697C296.782 417.709 305.025 418.866 312.833 416.599C320.527 414.364 327.601 408.855 334.669 401.991L334.763 401.9L334.84 401.793C342.543 391.139 344.144 381.805 341.595 373.751C339.075 365.79 332.605 359.429 324.919 354.416Z" fill="#890F0F" stroke="#181818" stroke-width="3"/>
<path d="M334.421 346.623L334.295 346.548C333.651 346.212 332.846 346.386 332.401 346.98L318.137 366.03C317.888 366.362 317.788 366.782 317.86 367.19C317.932 367.599 318.171 367.958 318.518 368.185L319.035 368.522C319.637 368.914 320.431 368.825 320.931 368.31L337.779 350.946C338.091 350.624 338.242 350.179 338.193 349.734C338.143 349.289 337.897 348.889 337.522 348.644L334.421 346.623Z" fill="#890F0F" stroke="#181818" stroke-width="3" stroke-linejoin="round"/>
<path d="M324.741 371.087C323.478 370.264 320.023 368.894 316.307 370.006C317.012 368.501 317.613 364.819 314.385 362.124" stroke="#181818" stroke-width="3" stroke-linecap="round" stroke-linejoin="round"/>
<path d="M1337.92 502.417C1330.28 497.434 1322.31 493.894 1314.22 494.721C1306.03 495.556 1298.16 500.797 1290.6 512.38L1290.57 512.427L1290.55 512.475C1285.42 521.756 1282.56 530.151 1283.77 538.024C1284.99 545.975 1290.3 553.003 1300.56 559.697C1309.78 565.709 1318.02 566.867 1325.83 564.599C1333.53 562.365 1340.6 556.856 1347.67 549.991L1347.76 549.9L1347.84 549.794C1355.54 539.14 1357.14 529.806 1354.59 521.751C1352.07 513.791 1345.61 507.429 1337.92 502.417Z" fill="#890F0F" stroke="#181818" stroke-width="3"/>
<path d="M1347.42 494.623L1347.29 494.549C1346.65 494.213 1345.85 494.387 1345.4 494.98L1331.14 514.03C1330.89 514.362 1330.79 514.782 1330.86 515.191C1330.93 515.599 1331.17 515.959 1331.52 516.185L1332.04 516.523C1332.64 516.915 1333.43 516.826 1333.93 516.311L1350.78 498.946C1351.09 498.625 1351.24 498.18 1351.19 497.734C1351.14 497.289 1350.9 496.89 1350.52 496.645L1347.42 494.623Z" fill="#890F0F" stroke="#181818" stroke-width="3" stroke-linejoin="round"/>
<path d="M1337.74 519.088C1336.48 518.264 1333.02 516.895 1329.31 518.006C1330.01 516.502 1330.61 512.819 1327.39 510.125" stroke="#181818" stroke-width="3" stroke-linecap="round" stroke-linejoin="round"/>
<path d="M275.068 614.006C286.07 606.831 297.422 601.822 308.88 602.992C320.425 604.17 331.652 611.567 342.502 628.204L342.532 628.251L342.559 628.299C349.943 641.673 353.985 653.636 352.271 664.785C350.544 676.012 343.05 686.022 328.305 695.638C315.124 704.235 303.415 705.851 292.351 702.638C281.4 699.457 271.277 691.597 261.083 681.696L260.99 681.605L260.913 681.498C249.872 666.227 247.648 652.961 251.25 641.58C254.822 630.293 264.02 621.211 275.068 614.006Z" fill="#890F0F" stroke="#181818" stroke-width="3"/>
<path d="M261.342 602.746L261.468 602.672C262.113 602.336 262.917 602.51 263.362 603.103L283.969 630.624C284.217 630.956 284.317 631.375 284.245 631.783C284.173 632.192 283.934 632.552 283.587 632.779L282.841 633.266C282.24 633.658 281.445 633.569 280.945 633.054L256.606 607.968C256.294 607.647 256.142 607.202 256.192 606.756C256.242 606.311 256.488 605.912 256.863 605.667L261.342 602.746Z" fill="#890F0F" stroke="#181818" stroke-width="3" stroke-linejoin="round"/>
<path d="M274.961 637.53C276.786 636.34 281.777 634.362 287.145 635.967C286.128 633.794 285.259 628.474 289.922 624.582" stroke="#181818" stroke-width="3" stroke-linecap="round" stroke-linejoin="round"/>
<path d="M1161.92 628.417C1154.28 623.434 1146.31 619.894 1138.22 620.721C1130.03 621.556 1122.16 626.797 1114.6 638.38L1114.57 638.427L1114.55 638.475C1109.42 647.756 1106.56 656.151 1107.77 664.024C1108.99 671.975 1114.3 679.003 1124.56 685.697C1133.78 691.709 1142.02 692.867 1149.83 690.599C1157.53 688.365 1164.6 682.856 1171.67 675.991L1171.76 675.9L1171.84 675.794C1179.54 665.14 1181.14 655.806 1178.59 647.751C1176.07 639.791 1169.61 633.429 1161.92 628.417Z" fill="#890F0F" stroke="#181818" stroke-width="3"/>
<path d="M1171.42 620.623L1171.29 620.549C1170.65 620.213 1169.85 620.387 1169.4 620.98L1155.14 640.03C1154.89 640.362 1154.79 640.782 1154.86 641.191C1154.93 641.599 1155.17 641.959 1155.52 642.185L1156.04 642.523C1156.64 642.915 1157.43 642.826 1157.93 642.311L1174.78 624.946C1175.09 624.625 1175.24 624.18 1175.19 623.734C1175.14 623.289 1174.9 622.89 1174.52 622.645L1171.42 620.623Z" fill="#890F0F" stroke="#181818" stroke-width="3" stroke-linejoin="round"/>
<path d="M1161.74 645.088C1160.48 644.264 1157.02 642.895 1153.31 644.006C1154.01 642.502 1154.61 638.819 1151.39 636.125" stroke="#181818" stroke-width="3" stroke-linecap="round" stroke-linejoin="round"/>
<path d="M1272.66 197.901C1261.34 190.516 1249.66 185.366 1237.88 186.569C1226.02 187.781 1214.47 195.384 1203.3 212.506L1203.27 212.552L1203.25 212.6C1195.65 226.367 1191.49 238.672 1193.25 250.134C1195.03 261.675 1202.73 271.971 1217.9 281.867C1231.47 290.711 1243.51 292.372 1254.88 289.068C1266.15 285.796 1276.56 277.711 1287.05 267.519L1287.15 267.427L1287.22 267.321C1298.59 251.608 1300.87 237.965 1297.17 226.265C1293.49 214.659 1284.03 205.316 1272.66 197.901Z" fill="#890F0F" stroke="#181818" stroke-width="3"/>
<path d="M1286.8 186.31C1286.13 185.878 1285.25 186.035 1284.78 186.667L1263.56 214.999C1263.31 215.331 1263.21 215.751 1263.28 216.159C1263.36 216.567 1263.59 216.928 1263.94 217.154L1264.71 217.656C1265.31 218.047 1266.11 217.959 1266.61 217.444L1291.66 191.618C1291.97 191.297 1292.13 190.852 1292.08 190.406C1292.03 189.961 1291.78 189.562 1291.41 189.317L1286.8 186.31Z" fill="#890F0F" stroke="#181818" stroke-width="3" stroke-linejoin="round"/>
<path d="M1272.8 222.082C1270.92 220.857 1265.78 218.821 1260.25 220.474C1261.3 218.236 1262.2 212.759 1257.4 208.752" stroke="#181818" stroke-width="3" stroke-linecap="round" stroke-linejoin="round"/>
</g>
<defs>
<linearGradient id="paint0_linear_183_622" x1="791" y1="-483.802" x2="775.645" y2="320.841" gradientUnits="userSpaceOnUse">
<stop offset="0.586538" stop-color="#181818"/>
<stop offset="1" stop-color="#181818" stop-opacity="0"/>
</linearGradient>
<linearGradient id="paint1_linear_183_622" x1="791" y1="-483.802" x2="775.645" y2="320.841" gradientUnits="userSpaceOnUse">
<stop offset="0.586538" stop-color="#181818"/>
<stop offset="1" stop-color="#181818" stop-opacity="0"/>
</linearGradient>
<clipPath id="clip0_183_622">
<rect width="1440" height="843" fill="white"/>
</clipPath>
</defs>
</svg>
