<svg width="1512" height="982" viewBox="0 0 1512 982" fill="none" xmlns="http://www.w3.org/2000/svg">
<g clip-path="url(#clip0_182_526)">
<rect width="1512" height="748" transform="matrix(-1 1.50613e-08 1.50613e-08 1 1512 0)" fill="url(#paint0_linear_182_526)"/>
<path d="M106.24 109.272C106.837 112.728 107.435 114.883 108.032 115.736C108.672 116.589 108.992 117.08 108.992 117.208C109.035 117.549 108.565 117.869 107.584 118.168C106.645 118.424 105.6 118.637 104.448 118.808C102.827 119.021 101.675 119.128 100.992 119.128C99.712 119.128 98.9867 118.893 98.816 118.424C98.688 118.083 98.3893 116.568 97.92 113.88C97.7067 112.856 97.408 111.448 97.024 109.656C96.6827 107.821 96.448 106.712 96.32 106.328C94.656 108.845 92.3307 111.107 89.344 113.112C86.4 115.075 83.584 116.632 80.896 117.784C78.7627 118.68 77.0987 119.107 75.904 119.064C75.4347 119.021 75.0933 118.36 74.88 117.08C74.6667 115.8 74.56 114.221 74.56 112.344C74.56 109.656 74.7093 107.416 75.008 105.624C75.4347 102.936 75.9467 100.397 76.544 98.008C77.1413 95.6187 78.3573 92.7173 80.192 89.304C82.0693 85.848 84.6507 82.712 87.936 79.896C87.168 78.0613 86.592 76.5253 86.208 75.288C85.8667 74.008 85.7173 72.8987 85.76 71.96C85.8027 71.0213 86.3147 70.1893 87.296 69.464C88.2773 68.7387 89.3013 68.184 90.368 67.8C91.1787 67.5013 91.9467 67.2667 92.672 67.096C93.3973 66.9253 93.824 66.9253 93.952 67.096C94.0373 67.224 94.0373 67.5227 93.952 67.992C93.9093 68.4613 93.888 68.9093 93.888 69.336C93.888 71.512 95.3813 76.0133 98.368 82.84C100.032 86.68 101.653 91.48 103.232 97.24C104.853 103 105.856 107.011 106.24 109.272ZM84.16 112.856C85.696 111.96 87.3387 110.509 89.088 108.504C90.8373 106.456 92.2453 104.408 93.312 102.36C94.4213 100.269 94.8693 98.7547 94.656 97.816C94.144 95.6827 93.5893 93.8053 92.992 92.184C92.3947 90.52 91.6267 88.472 90.688 86.04L89.728 83.736C89.5573 83.3093 89.408 82.9893 89.28 82.776C85.952 86.104 83.84 92.4187 82.944 101.72L82.816 103.192C82.5173 106.093 82.368 108.12 82.368 109.272C82.368 111.789 82.7733 113.048 83.584 113.048C83.7973 113.048 83.9893 112.984 84.16 112.856ZM139.467 67.864C140.149 67.864 140.661 67.9067 141.003 67.992C141.344 68.0347 141.515 68.1627 141.515 68.376C141.515 69.912 141.067 72.408 140.171 75.864C139.275 79.32 138.592 81.6453 138.123 82.84C137.867 83.48 137.504 83.8 137.035 83.8C136.48 83.8 136.16 83.288 136.075 82.264C135.861 78.5947 134.816 75.0107 132.939 71.512H124.427C124.469 72.024 124.491 72.8133 124.491 73.88C124.491 75.3733 124.427 77.272 124.299 79.576C124.256 82.7333 124.192 86.936 124.107 92.184C124.064 97.3893 124.043 101.656 124.043 104.984C124.043 108.184 124.149 110.808 124.363 112.856C124.576 114.904 125.088 116.461 125.899 117.528C126.24 117.997 125.429 118.445 123.467 118.872C121.504 119.256 119.605 119.448 117.771 119.448L116.683 119.384C116.256 119.341 115.957 118.851 115.786 117.912C115.616 116.973 115.531 115.672 115.531 114.008C115.531 112.984 115.595 110.744 115.723 107.288C116.192 93.4213 116.427 84.824 116.427 81.496C116.427 78.552 116.256 76.184 115.915 74.392C115.616 72.5573 115.04 71.0213 114.187 69.784C113.845 69.3147 114.677 68.8667 116.683 68.44C118.731 68.0133 120.672 67.8213 122.507 67.864H139.467ZM173.951 99.032C175.529 99.3307 176.319 100.525 176.319 102.616C176.319 103.768 176.127 104.877 175.743 105.944C174.932 108.717 173.524 110.979 171.519 112.728C169.471 114.52 167.081 116.056 164.351 117.336C161.663 118.616 159.103 119.277 156.671 119.32C156.5 119.32 156.372 119.299 156.287 119.256C156.073 119.256 155.967 119.235 155.967 119.192C155.668 117.827 155.199 116.461 154.559 115.096C153.919 113.731 153.087 112.173 152.062 110.424C150.484 107.736 149.417 105.624 148.863 104.088C147.369 99.9493 146.623 95.9173 146.623 91.992C146.623 90.1147 146.772 88.3653 147.071 86.744C147.54 84.2267 148.372 81.8587 149.567 79.64C150.761 77.3787 152.276 75.48 154.111 73.944C156.671 71.896 159.529 70.3173 162.687 69.208C165.887 68.056 169.065 67.544 172.223 67.672C172.393 67.672 172.479 67.864 172.479 68.248V68.504C172.436 70.1253 171.967 72.6213 171.071 75.992C170.175 79.32 169.492 81.5387 169.023 82.648C168.767 83.288 168.425 83.608 167.999 83.608C167.743 83.608 167.529 83.48 167.359 83.224C167.188 82.9253 167.081 82.5413 167.039 82.072C166.783 77.976 165.737 74.456 163.903 71.512C162.793 71.8533 161.663 72.4507 160.51 73.304C159.359 74.1147 158.356 75.2027 157.503 76.568C156.479 78.2747 155.711 80.1733 155.199 82.264C154.729 84.312 154.495 86.4027 154.495 88.536C154.495 89.2187 154.516 89.7093 154.559 90.008L154.943 89.752C156.393 88.8987 158.1 88.28 160.062 87.896C162.025 87.512 163.988 87.32 165.951 87.32C167.615 87.32 169.023 87.448 170.175 87.704C171.369 87.9173 171.967 88.1947 171.967 88.536C171.967 91.1813 170.58 93.8267 167.807 96.472C167.209 97.0693 166.761 97.368 166.463 97.368C166.036 97.368 165.759 96.8773 165.631 95.896C165.247 92.824 163.199 91.288 159.487 91.288C157.951 91.288 156.351 91.5227 154.687 91.992C155.113 95.832 156.244 99.8 158.079 103.896L160.127 107.608C162.004 110.68 163.199 113.197 163.711 115.16C164.265 114.861 165.012 114.243 165.951 113.304C167.145 111.939 167.935 109.997 168.319 107.48C168.361 107.224 168.383 106.797 168.383 106.2C168.383 104.152 167.764 103.021 166.527 102.808C166.143 102.723 166.335 102.403 167.103 101.848C167.913 101.251 168.511 100.867 168.895 100.696C169.108 100.611 169.556 100.397 170.239 100.056C170.964 99.672 171.647 99.3947 172.287 99.224C172.927 99.0107 173.481 98.9467 173.951 99.032ZM212.347 117.656C212.688 118.125 211.878 118.573 209.915 119C207.995 119.384 206.096 119.576 204.219 119.576L203.131 119.512C202.363 119.469 201.979 117.677 201.979 114.136C201.979 113.112 202.043 110.872 202.171 107.416C202.384 101.784 202.512 97.688 202.555 95.128H191.035C190.992 98.2 190.971 101.528 190.971 105.112C190.971 108.312 191.078 110.936 191.291 112.984C191.504 115.032 192.016 116.589 192.827 117.656C193.168 118.125 192.358 118.573 190.395 119C188.475 119.384 186.576 119.576 184.699 119.576L183.611 119.512C182.843 119.469 182.459 117.613 182.459 113.944C182.459 112.92 182.523 110.744 182.651 107.416L182.779 104.472C182.822 102.893 182.928 99.2667 183.099 93.592C183.312 87.9173 183.419 83.928 183.419 81.624C183.419 78.5947 183.312 76.4827 183.099 75.288C182.928 74.0507 182.395 72.8347 181.499 71.64C181.243 71.256 181.648 70.7227 182.715 70.04C183.782 69.3573 185.062 68.76 186.555 68.248C188.091 67.6933 189.35 67.4587 190.331 67.544C191.099 67.5867 191.483 69.4853 191.483 73.24C191.483 74.136 191.398 76.2907 191.227 79.704L191.099 91.352H202.683L202.875 80.664C202.875 78.0613 202.768 76.184 202.555 75.032C202.384 73.88 201.872 72.7493 201.019 71.64C200.763 71.256 201.147 70.7227 202.171 70.04C203.238 69.3573 204.518 68.76 206.011 68.248C207.547 67.6933 208.806 67.4587 209.787 67.544C210.555 67.5867 210.939 69.592 210.939 73.56C210.939 75.224 210.875 77.272 210.747 79.704L210.427 104.152C210.427 107.651 210.534 110.488 210.747 112.664C210.96 114.84 211.494 116.504 212.347 117.656ZM244.568 98.136C246.104 98.392 246.872 99.5653 246.872 101.656C246.872 102.552 246.744 103.555 246.488 104.664C245.72 107.864 244.376 110.424 242.456 112.344C240.579 114.264 238.211 115.907 235.352 117.272C232.536 118.595 229.827 119.277 227.224 119.32C227.053 119.32 226.925 119.299 226.84 119.256C226.627 119.256 226.52 119.235 226.52 119.192C226.221 117.784 225.773 116.44 225.176 115.16C224.621 113.837 223.811 112.173 222.744 110.168C221.293 107.523 220.312 105.496 219.8 104.088C218.307 99.864 217.56 95.7893 217.56 91.864C217.56 90.072 217.709 88.3653 218.008 86.744C219.117 80.9413 221.336 76.6747 224.664 73.944C227.267 71.896 230.147 70.3173 233.304 69.208C236.461 68.056 239.619 67.544 242.776 67.672C242.947 67.672 243.032 67.8427 243.032 68.184V68.248V68.504C242.947 70.1253 242.456 72.5787 241.56 75.864C240.707 79.1493 240.067 81.4107 239.64 82.648C239.384 83.288 239.021 83.608 238.552 83.608C237.997 83.608 237.677 83.096 237.592 82.072C237.379 78.1893 236.355 74.6907 234.52 71.576C231.704 72.2587 229.549 73.9227 228.056 76.568C226.264 79.768 225.411 83.7573 225.496 88.536C225.496 93.656 226.712 98.776 229.144 103.896C229.613 104.92 230.253 106.179 231.064 107.672C231.96 109.379 232.643 110.787 233.112 111.896C233.624 112.963 234.029 114.093 234.328 115.288C234.797 114.989 235.309 114.52 235.864 113.88C236.419 113.24 236.824 112.643 237.08 112.088C238.104 110.253 238.744 108.227 239 106.008C239.085 105.112 238.979 104.237 238.68 103.384C238.424 102.531 237.912 102.04 237.144 101.912C236.632 101.827 236.867 101.464 237.848 100.824C238.829 100.184 239.363 99.8427 239.448 99.8C239.661 99.7147 240.109 99.5013 240.792 99.16C241.517 98.776 242.2 98.4987 242.84 98.328C243.523 98.1147 244.099 98.0507 244.568 98.136ZM286.046 67.928C286.686 67.928 287.006 68.056 287.006 68.312C287.006 70.488 286.579 73.24 285.726 76.568C284.915 79.8533 284.211 82.264 283.614 83.8C283.358 84.3973 283.016 84.696 282.59 84.696C282.334 84.696 282.099 84.568 281.886 84.312C281.715 84.056 281.608 83.672 281.566 83.16C281.31 79.1067 280.094 75.2667 277.918 71.64H273.822C273.864 72.152 273.886 72.9413 273.886 74.008C273.886 75.5013 273.822 77.4 273.694 79.704C273.651 81.0693 273.587 84.824 273.502 90.968C273.416 97.0693 273.374 101.784 273.374 105.112C273.374 108.312 273.48 110.936 273.694 112.984C273.907 115.032 274.419 116.589 275.23 117.656C275.571 118.125 274.76 118.573 272.798 119C270.878 119.384 268.979 119.576 267.102 119.576L266.014 119.512C265.246 119.469 264.862 117.613 264.862 113.944C264.862 112.92 264.926 110.744 265.054 107.416L265.182 104.472C265.224 102.893 265.331 99.2667 265.502 93.592C265.715 87.9173 265.822 83.928 265.822 81.624C265.822 79.2773 265.715 77.336 265.502 75.8C265.331 74.2213 264.99 72.8347 264.478 71.64H260.446C258.654 75.8213 257.651 79.6613 257.438 83.16C257.395 84.184 257.075 84.696 256.478 84.696C256.051 84.696 255.71 84.3973 255.454 83.8C254.814 82.0507 254.067 79.7893 253.214 77.016C252.403 74.2 251.998 72.024 251.998 70.488C251.998 69.7627 252.766 69.208 254.302 68.824C255.838 68.44 257.566 68.184 259.486 68.056C261.406 67.928 262.366 67.8853 262.366 67.928H286.046ZM318.491 98.136C321.947 103.299 323.675 109.037 323.675 115.352C323.675 115.864 323.184 116.397 322.203 116.952C321.264 117.507 320.176 117.997 318.939 118.424C317.701 118.808 316.72 119 315.995 119L294.683 118.936C293.915 118.979 293.531 117.208 293.531 113.624C293.531 112.685 293.595 110.552 293.723 107.224L293.851 104.216C293.893 102.68 294 99.0747 294.171 93.4C294.384 87.7253 294.491 83.7573 294.491 81.496C294.491 78.5093 294.32 76.12 293.979 74.328C293.68 72.4933 293.083 70.9573 292.187 69.72C291.845 69.2507 292.677 68.8027 294.683 68.376C296.688 67.9493 298.629 67.736 300.507 67.736H302.619L321.115 67.672L321.307 67.864C321.264 70.7227 320.709 73.4747 319.643 76.12C318.619 78.7653 317.147 81.1973 315.227 83.416L314.331 84.312C313.435 85.1227 312.709 85.8693 312.155 86.552C311.643 87.2347 311.387 87.9173 311.387 88.6C311.387 88.9413 311.493 89.3253 311.707 89.752C312.347 90.8187 313.52 92.2907 315.227 94.168C316.763 95.8747 317.851 97.1973 318.491 98.136ZM315.547 115.224C315.504 112.835 314.843 110.147 313.563 107.16C312.325 104.131 310.512 101.208 308.123 98.392L306.843 97.048C305.819 96.024 305.008 95.1067 304.411 94.296C303.856 93.4853 303.579 92.6747 303.579 91.864C303.579 91.1387 303.835 90.456 304.347 89.816C304.56 89.56 305.264 88.7707 306.458 87.448C307.824 85.9973 308.72 84.952 309.147 84.312C311.408 81.0267 312.539 76.9307 312.539 72.024C312.539 71.7253 312.453 71.5547 312.283 71.512C312.112 71.4267 311.899 71.4053 311.643 71.448C311.429 71.448 311.28 71.448 311.195 71.448H302.747H302.491C302.533 71.96 302.555 72.7493 302.555 73.816C302.555 75.3093 302.491 77.208 302.363 79.512C302.32 80.8347 302.256 84.312 302.171 89.944C302.085 95.576 302.043 100.248 302.043 103.96C302.043 106.733 302.085 108.995 302.171 110.744C302.299 112.493 302.576 113.987 303.003 115.224H315.547ZM357.866 82.456C359.317 85.9973 360.042 89.688 360.042 93.528C360.042 94.168 359.999 95.0853 359.914 96.28C359.487 101.272 358.143 105.347 355.882 108.504C353.322 112.088 349.546 115.032 344.554 117.336C343.487 117.976 342.143 118.531 340.522 119C338.943 119.512 338.133 119.64 338.09 119.384C337.706 117.976 337.194 116.632 336.554 115.352C335.914 114.029 335.082 112.472 334.058 110.68C332.394 107.779 331.221 105.411 330.538 103.576C329.386 100.589 328.81 97.3467 328.81 93.848C328.81 92.3547 328.895 91.0107 329.066 89.816C329.749 84.3547 331.285 80.088 333.674 77.016C335.466 74.712 337.727 72.792 340.458 71.256C343.189 69.72 346.175 68.5467 349.418 67.736C349.759 67.6507 350.015 67.608 350.186 67.608C350.57 67.608 350.783 67.6507 350.826 67.736C351.167 69.1013 351.637 70.424 352.234 71.704C352.831 72.9413 353.685 74.52 354.794 76.44C355.007 76.824 355.455 77.6347 356.138 78.872C356.821 80.1093 357.397 81.304 357.866 82.456ZM350.314 107.352C351.551 104.152 352.17 100.717 352.17 97.048C352.17 92.4827 351.125 88.0667 349.034 83.8C348.351 82.4347 347.647 81.176 346.922 80.024C346.751 79.7253 346.367 79.0427 345.77 77.976C345.173 76.8667 344.639 75.8427 344.17 74.904C343.743 73.9227 343.402 73.0053 343.146 72.152C342.591 72.6213 342.122 73.112 341.738 73.624C340.501 75.2453 339.541 76.952 338.858 78.744C337.45 82.3707 336.746 86.3387 336.746 90.648C336.746 94.872 337.685 98.9253 339.562 102.808C339.903 103.491 340.693 104.941 341.93 107.16C342.613 108.355 343.295 109.613 343.978 110.936C344.661 112.259 345.194 113.496 345.578 114.648C347.498 112.899 349.077 110.467 350.314 107.352ZM426.726 95.896C428.816 98.712 429.862 101.485 429.862 104.216C429.862 105.496 429.563 106.84 428.966 108.248C427.686 111.149 425.552 113.496 422.566 115.288C419.622 117.037 416.144 118.509 412.134 119.704C411.622 119.832 411.216 119.896 410.918 119.896C410.619 119.896 410.32 119.811 410.022 119.64C407.888 118.403 405.84 116.696 403.878 114.52C401.958 112.344 400.998 110.232 400.998 108.184C400.998 107.032 401.318 106.029 401.958 105.176C402.384 104.579 402.939 104.109 403.622 103.768C404.347 103.427 405.35 103 406.63 102.488C406.715 102.488 407.312 102.339 408.422 102.04C409.574 101.699 410.022 101.741 409.766 102.168C409.211 102.979 408.934 103.896 408.934 104.92C408.934 106.285 409.382 107.864 410.278 109.656C410.96 110.979 411.835 112.152 412.902 113.176C413.968 114.157 414.992 114.861 415.974 115.288C417.339 114.691 418.619 113.773 419.814 112.536C421.008 111.299 421.606 109.848 421.606 108.184C421.606 105.709 420.859 103.363 419.366 101.144C417.872 98.8827 415.867 96.4293 413.35 93.784C412.71 93.144 412.39 92.248 412.39 91.096C412.39 90.6693 412.432 90.072 412.518 89.304C413.03 85.8907 414.16 82.5413 415.91 79.256C417.659 75.9707 419.728 73.4107 422.118 71.576H410.918C408.998 74.9467 407.931 78.5733 407.718 82.456C407.675 82.968 407.547 83.352 407.334 83.608C407.163 83.864 406.95 83.992 406.694 83.992C406.267 83.992 405.926 83.672 405.67 83.032C405.584 82.8187 404.987 81.3893 403.878 78.744C402.811 76.056 402.278 73.6453 402.278 71.512C402.278 71.4267 402.342 71.32 402.47 71.192C402.726 70.936 403.11 70.616 403.622 70.232C404.176 69.848 404.56 69.592 404.774 69.464C405.84 68.9093 406.758 68.504 407.526 68.248C408.294 67.9493 409.062 67.8 409.83 67.8H428.454C429.051 67.8 429.35 67.9493 429.35 68.248C429.35 68.5893 428.859 69.1867 427.878 70.04L427.75 70.232C425.787 72.4933 424.251 74.6907 423.142 76.824C422.032 78.9147 421.2 81.3893 420.646 84.248C420.603 84.5467 420.496 85.0373 420.326 85.72C420.198 86.36 420.134 86.9147 420.134 87.384C420.134 88.2373 420.347 88.8987 420.774 89.368C420.816 89.4107 421.627 90.2853 423.206 91.992C424.912 93.6987 426.086 95 426.726 95.896ZM465.91 117.656C466.251 118.125 465.44 118.573 463.478 119C461.558 119.384 459.659 119.576 457.782 119.576L456.694 119.512C455.926 119.469 455.542 117.677 455.542 114.136C455.542 113.112 455.606 110.872 455.734 107.416C455.947 101.784 456.075 97.688 456.118 95.128H444.598C444.555 98.2 444.534 101.528 444.534 105.112C444.534 108.312 444.64 110.936 444.854 112.984C445.067 115.032 445.579 116.589 446.39 117.656C446.731 118.125 445.92 118.573 443.958 119C442.038 119.384 440.139 119.576 438.262 119.576L437.174 119.512C436.406 119.469 436.022 117.613 436.022 113.944C436.022 112.92 436.086 110.744 436.214 107.416L436.342 104.472C436.384 102.893 436.491 99.2667 436.661 93.592C436.875 87.9173 436.982 83.928 436.982 81.624C436.982 78.5947 436.875 76.4827 436.661 75.288C436.491 74.0507 435.958 72.8347 435.062 71.64C434.806 71.256 435.211 70.7227 436.278 70.04C437.344 69.3573 438.624 68.76 440.118 68.248C441.654 67.6933 442.912 67.4587 443.894 67.544C444.662 67.5867 445.046 69.4853 445.046 73.24C445.046 74.136 444.96 76.2907 444.79 79.704L444.662 91.352H456.246L456.438 80.664C456.438 78.0613 456.331 76.184 456.118 75.032C455.947 73.88 455.435 72.7493 454.582 71.64C454.326 71.256 454.71 70.7227 455.734 70.04C456.8 69.3573 458.08 68.76 459.574 68.248C461.11 67.6933 462.368 67.4587 463.35 67.544C464.118 67.5867 464.502 69.592 464.502 73.56C464.502 75.224 464.438 77.272 464.31 79.704L463.99 104.152C463.99 107.651 464.096 110.488 464.31 112.664C464.523 114.84 465.056 116.504 465.91 117.656ZM502.803 109.272C503.4 112.728 503.997 114.883 504.595 115.736C505.235 116.589 505.555 117.08 505.555 117.208C505.597 117.549 505.128 117.869 504.147 118.168C503.208 118.424 502.163 118.637 501.011 118.808C499.389 119.021 498.237 119.128 497.555 119.128C496.275 119.128 495.549 118.893 495.379 118.424C495.251 118.083 494.952 116.568 494.483 113.88C494.269 112.856 493.971 111.448 493.587 109.656C493.245 107.821 493.011 106.712 492.883 106.328C491.219 108.845 488.893 111.107 485.907 113.112C482.963 115.075 480.147 116.632 477.459 117.784C475.325 118.68 473.661 119.107 472.467 119.064C471.997 119.021 471.656 118.36 471.443 117.08C471.229 115.8 471.123 114.221 471.123 112.344C471.123 109.656 471.272 107.416 471.571 105.624C471.997 102.936 472.509 100.397 473.107 98.008C473.704 95.6187 474.92 92.7173 476.755 89.304C478.632 85.848 481.213 82.712 484.499 79.896C483.731 78.0613 483.155 76.5253 482.771 75.288C482.429 74.008 482.28 72.8987 482.323 71.96C482.365 71.0213 482.877 70.1893 483.859 69.464C484.84 68.7387 485.864 68.184 486.931 67.8C487.741 67.5013 488.509 67.2667 489.235 67.096C489.96 66.9253 490.387 66.9253 490.515 67.096C490.6 67.224 490.6 67.5227 490.515 67.992C490.472 68.4613 490.451 68.9093 490.451 69.336C490.451 71.512 491.944 76.0133 494.931 82.84C496.595 86.68 498.216 91.48 499.795 97.24C501.416 103 502.419 107.011 502.803 109.272ZM480.723 112.856C482.259 111.96 483.901 110.509 485.651 108.504C487.4 106.456 488.808 104.408 489.875 102.36C490.984 100.269 491.432 98.7547 491.219 97.816C490.707 95.6827 490.152 93.8053 489.555 92.184C488.957 90.52 488.189 88.472 487.251 86.04L486.291 83.736C486.12 83.3093 485.971 82.9893 485.843 82.776C482.515 86.104 480.403 92.4187 479.507 101.72L479.379 103.192C479.08 106.093 478.931 108.12 478.931 109.272C478.931 111.789 479.336 113.048 480.147 113.048C480.36 113.048 480.552 112.984 480.723 112.856ZM520.157 106.456C520.157 109.101 520.285 111.363 520.541 113.24C520.797 115.075 521.288 116.504 522.013 117.528C522.354 117.997 521.544 118.445 519.581 118.872C517.661 119.299 515.762 119.512 513.885 119.512L512.797 119.448C512.029 119.405 511.645 117.592 511.645 114.008C511.645 112.984 511.709 110.744 511.837 107.288C511.837 106.563 511.922 103.043 512.093 96.728C512.392 85.976 512.541 80.3013 512.541 79.704C512.541 77.272 512.434 75.5867 512.221 74.648C512.05 73.7093 511.56 72.6853 510.749 71.576C510.45 71.192 510.813 70.6587 511.837 69.976C512.904 69.2933 514.205 68.696 515.741 68.184C517.277 67.6293 518.536 67.3947 519.517 67.48C520.242 67.5227 520.605 69.4853 520.605 73.368C520.605 75.0747 520.541 77.144 520.413 79.576C520.37 82.4347 520.306 86.296 520.221 91.16C520.178 96.024 520.157 100.333 520.157 104.088V106.456ZM530.845 92.184C533.704 95.8107 536.114 99.5653 538.077 103.448C540.082 107.288 541.618 110.659 542.685 113.56C543.368 115.352 543.901 116.483 544.285 116.952C544.712 117.379 544.904 117.635 544.861 117.72C544.69 118.189 543.581 118.616 541.533 119C539.485 119.384 537.778 119.576 536.413 119.576C535.858 119.576 535.496 119.448 535.325 119.192C535.154 118.936 534.941 118.339 534.685 117.4C534.6 117.101 534.45 116.632 534.237 115.992C534.066 115.352 533.874 114.733 533.661 114.136C532.85 111.747 531.485 108.845 529.565 105.432C527.645 101.976 525.64 98.904 523.549 96.216C523.378 95.96 523.037 95.5333 522.525 94.936C522.013 94.296 521.629 93.6773 521.373 93.08C521.16 92.4827 521.053 91.8213 521.053 91.096C521.053 89.3893 521.736 86.808 523.101 83.352C524.296 80.3653 526.152 77.7413 528.669 75.48C531.229 73.176 533.81 71.4053 536.413 70.168C537.736 69.528 539.058 69.0373 540.381 68.696C541.704 68.312 542.792 68.12 543.645 68.12C544.584 68.12 545.053 68.3547 545.053 68.824C545.053 70.4027 544.584 72.9627 543.645 76.504C542.749 80.0027 542.066 82.2427 541.597 83.224C541.341 83.9067 541 84.248 540.573 84.248C540.317 84.248 540.082 84.12 539.869 83.864C539.698 83.5653 539.592 83.1813 539.549 82.712C539.378 80.4933 539.08 78.6587 538.653 77.208C538.226 75.7573 537.8 74.6693 537.373 73.944C536.989 73.176 536.797 72.856 536.797 72.984C535.688 73.5387 534.493 74.5627 533.213 76.056C531.933 77.5493 530.973 79.256 530.333 81.176C529.821 82.712 529.458 83.9067 529.245 84.76C529.032 85.6133 528.925 86.4453 528.925 87.256C528.925 88.9627 529.565 90.6053 530.845 92.184ZM579.241 82.456C580.692 85.9973 581.417 89.688 581.417 93.528C581.417 94.168 581.374 95.0853 581.289 96.28C580.862 101.272 579.518 105.347 577.257 108.504C574.697 112.088 570.921 115.032 565.929 117.336C564.862 117.976 563.518 118.531 561.897 119C560.318 119.512 559.508 119.64 559.465 119.384C559.081 117.976 558.569 116.632 557.929 115.352C557.289 114.029 556.457 112.472 555.433 110.68C553.769 107.779 552.596 105.411 551.913 103.576C550.761 100.589 550.185 97.3467 550.185 93.848C550.185 92.3547 550.27 91.0107 550.441 89.816C551.124 84.3547 552.66 80.088 555.049 77.016C556.841 74.712 559.102 72.792 561.833 71.256C564.564 69.72 567.55 68.5467 570.793 67.736C571.134 67.6507 571.39 67.608 571.561 67.608C571.945 67.608 572.158 67.6507 572.201 67.736C572.542 69.1013 573.012 70.424 573.609 71.704C574.206 72.9413 575.06 74.52 576.169 76.44C576.382 76.824 576.83 77.6347 577.513 78.872C578.196 80.1093 578.772 81.304 579.241 82.456ZM571.689 107.352C572.926 104.152 573.545 100.717 573.545 97.048C573.545 92.4827 572.5 88.0667 570.409 83.8C569.726 82.4347 569.022 81.176 568.297 80.024C568.126 79.7253 567.742 79.0427 567.145 77.976C566.548 76.8667 566.014 75.8427 565.545 74.904C565.118 73.9227 564.777 73.0053 564.521 72.152C563.966 72.6213 563.497 73.112 563.113 73.624C561.876 75.2453 560.916 76.952 560.233 78.744C558.825 82.3707 558.121 86.3387 558.121 90.648C558.121 94.872 559.06 98.9253 560.937 102.808C561.278 103.491 562.068 104.941 563.305 107.16C563.988 108.355 564.67 109.613 565.353 110.936C566.036 112.259 566.569 113.496 566.953 114.648C568.873 112.899 570.452 110.467 571.689 107.352ZM639.04 109.656C639.637 113.112 640.235 115.267 640.832 116.12C641.472 116.973 641.792 117.464 641.792 117.592C641.835 117.933 641.365 118.253 640.384 118.552C639.403 118.851 638.379 119.064 637.312 119.192C635.605 119.405 634.432 119.512 633.792 119.512C632.512 119.512 631.808 119.277 631.68 118.808C631.424 118.125 631.125 116.867 630.784 115.032C630.485 113.197 630.272 111.171 630.144 108.952C629.376 99.096 627.989 90.9253 625.984 84.44C625.813 84.056 625.664 83.6293 625.536 83.16C624.469 83.928 623.275 85.4427 621.952 87.704C620.672 89.9653 619.541 92.5893 618.56 95.576C617.621 98.5627 617.088 101.485 616.96 104.344C616.917 104.771 616.896 105.432 616.896 106.328C616.896 108.632 617.088 110.829 617.472 112.92C617.899 114.968 618.475 116.504 619.2 117.528C619.541 117.997 618.731 118.445 616.768 118.872C614.848 119.299 612.949 119.512 611.072 119.512L609.984 119.448C609.771 119.363 609.6 119.235 609.472 119.064C609.301 118.979 609.173 118.851 609.088 118.68C609.045 118.509 608.939 117.699 608.768 116.248C608.597 113.731 608.277 111.299 607.808 108.952C606.955 104.6 605.781 100.184 604.288 95.704C602.837 91.224 601.344 87.3627 599.808 84.12V84.056C598.357 86.4027 597.269 89.24 596.544 92.568C595.861 95.8533 595.349 99.4587 595.008 103.384C594.923 104.579 594.88 105.475 594.88 106.072C594.88 108.376 595.093 110.595 595.52 112.728C595.947 114.861 596.544 116.461 597.312 117.528C597.653 117.997 596.843 118.445 594.88 118.872C592.96 119.299 591.061 119.512 589.184 119.512L588.096 119.448C587.541 119.405 587.136 118.531 586.88 116.824C586.667 115.117 586.56 113.069 586.56 110.68C586.56 108.973 586.581 107.821 586.624 107.224C586.88 102.872 587.904 98.1787 589.696 93.144C591.488 88.1093 594.304 83.9067 598.144 80.536C597.333 78.6587 596.736 77.08 596.352 75.8C595.968 74.4773 595.797 73.3253 595.84 72.344C595.883 71.4053 596.395 70.5733 597.376 69.848C598.357 69.1227 599.381 68.568 600.448 68.184C601.301 67.8427 602.091 67.5867 602.816 67.416C603.541 67.2453 603.968 67.2667 604.096 67.48C604.139 67.608 604.117 67.928 604.032 68.44C603.989 68.952 603.968 69.5067 603.968 70.104C604.053 72.1093 605.568 76.4827 608.512 83.224C609.877 86.4667 611.243 90.456 612.608 95.192C613.504 92.2053 614.997 89.2827 617.088 86.424C619.221 83.5227 621.632 81.24 624.32 79.576C623.808 77.912 623.424 76.5253 623.168 75.416C622.955 74.264 622.869 73.24 622.912 72.344C622.955 71.4053 623.467 70.5733 624.448 69.848C625.429 69.1227 626.453 68.568 627.52 68.184C628.373 67.8427 629.163 67.5867 629.888 67.416C630.613 67.2453 631.04 67.2667 631.168 67.48C631.211 67.608 631.189 67.928 631.104 68.44C631.061 68.9093 631.061 69.464 631.104 70.104C631.104 70.6587 631.509 72.28 632.32 74.968C633.515 79.064 634.325 81.9227 634.752 83.544C635.605 86.5733 636.288 89.7733 636.8 93.144C637.312 96.5147 637.909 100.824 638.592 106.072C638.805 108.163 638.955 109.357 639.04 109.656ZM673.943 98.136C675.479 98.392 676.247 99.5653 676.247 101.656C676.247 102.552 676.119 103.555 675.863 104.664C675.095 107.864 673.751 110.424 671.831 112.344C669.954 114.264 667.586 115.907 664.727 117.272C661.911 118.595 659.202 119.277 656.599 119.32C656.428 119.32 656.3 119.299 656.215 119.256C656.002 119.256 655.895 119.235 655.895 119.192C655.596 117.784 655.148 116.44 654.551 115.16C653.996 113.837 653.186 112.173 652.119 110.168C650.668 107.523 649.687 105.496 649.175 104.088C647.682 99.864 646.935 95.7893 646.935 91.864C646.935 90.072 647.084 88.3653 647.383 86.744C648.492 80.9413 650.711 76.6747 654.039 73.944C656.642 71.896 659.522 70.3173 662.679 69.208C665.836 68.056 668.994 67.544 672.151 67.672C672.322 67.672 672.407 67.8427 672.407 68.184V68.248V68.504C672.322 70.1253 671.831 72.5787 670.935 75.864C670.082 79.1493 669.442 81.4107 669.015 82.648C668.759 83.288 668.396 83.608 667.927 83.608C667.372 83.608 667.052 83.096 666.967 82.072C666.754 78.1893 665.73 74.6907 663.895 71.576C661.079 72.2587 658.924 73.9227 657.431 76.568C655.639 79.768 654.786 83.7573 654.871 88.536C654.871 93.656 656.087 98.776 658.519 103.896C658.988 104.92 659.628 106.179 660.439 107.672C661.335 109.379 662.018 110.787 662.487 111.896C662.999 112.963 663.404 114.093 663.703 115.288C664.172 114.989 664.684 114.52 665.239 113.88C665.794 113.24 666.199 112.643 666.455 112.088C667.479 110.253 668.119 108.227 668.375 106.008C668.46 105.112 668.354 104.237 668.055 103.384C667.799 102.531 667.287 102.04 666.519 101.912C666.007 101.827 666.242 101.464 667.223 100.824C668.204 100.184 668.738 99.8427 668.823 99.8C669.036 99.7147 669.484 99.5013 670.167 99.16C670.892 98.776 671.575 98.4987 672.215 98.328C672.898 98.1147 673.474 98.0507 673.943 98.136ZM715.421 67.928C716.061 67.928 716.381 68.056 716.381 68.312C716.381 70.488 715.954 73.24 715.101 76.568C714.29 79.8533 713.586 82.264 712.989 83.8C712.733 84.3973 712.391 84.696 711.965 84.696C711.709 84.696 711.474 84.568 711.261 84.312C711.09 84.056 710.983 83.672 710.941 83.16C710.685 79.1067 709.469 75.2667 707.293 71.64H703.197C703.239 72.152 703.261 72.9413 703.261 74.008C703.261 75.5013 703.197 77.4 703.069 79.704C703.026 81.0693 702.962 84.824 702.877 90.968C702.791 97.0693 702.749 101.784 702.749 105.112C702.749 108.312 702.855 110.936 703.069 112.984C703.282 115.032 703.794 116.589 704.605 117.656C704.946 118.125 704.135 118.573 702.173 119C700.253 119.384 698.354 119.576 696.477 119.576L695.389 119.512C694.621 119.469 694.237 117.613 694.237 113.944C694.237 112.92 694.301 110.744 694.429 107.416L694.557 104.472C694.599 102.893 694.706 99.2667 694.877 93.592C695.09 87.9173 695.197 83.928 695.197 81.624C695.197 79.2773 695.09 77.336 694.877 75.8C694.706 74.2213 694.365 72.8347 693.853 71.64H689.821C688.029 75.8213 687.026 79.6613 686.812 83.16C686.77 84.184 686.45 84.696 685.853 84.696C685.426 84.696 685.085 84.3973 684.829 83.8C684.189 82.0507 683.442 79.7893 682.589 77.016C681.778 74.2 681.373 72.024 681.373 70.488C681.373 69.7627 682.141 69.208 683.677 68.824C685.213 68.44 686.941 68.184 688.861 68.056C690.781 67.928 691.741 67.8853 691.741 67.928H715.421ZM747.866 98.136C751.322 103.299 753.05 109.037 753.05 115.352C753.05 115.864 752.559 116.397 751.578 116.952C750.639 117.507 749.551 117.997 748.314 118.424C747.076 118.808 746.095 119 745.37 119L724.058 118.936C723.29 118.979 722.906 117.208 722.906 113.624C722.906 112.685 722.97 110.552 723.098 107.224L723.226 104.216C723.268 102.68 723.375 99.0747 723.546 93.4C723.759 87.7253 723.866 83.7573 723.866 81.496C723.866 78.5093 723.695 76.12 723.354 74.328C723.055 72.4933 722.458 70.9573 721.562 69.72C721.22 69.2507 722.052 68.8027 724.058 68.376C726.063 67.9493 728.004 67.736 729.882 67.736H731.994L750.49 67.672L750.682 67.864C750.639 70.7227 750.084 73.4747 749.018 76.12C747.994 78.7653 746.522 81.1973 744.602 83.416L743.706 84.312C742.81 85.1227 742.084 85.8693 741.53 86.552C741.018 87.2347 740.762 87.9173 740.762 88.6C740.762 88.9413 740.868 89.3253 741.082 89.752C741.722 90.8187 742.895 92.2907 744.602 94.168C746.138 95.8747 747.226 97.1973 747.866 98.136ZM744.922 115.224C744.879 112.835 744.218 110.147 742.938 107.16C741.7 104.131 739.887 101.208 737.498 98.392L736.218 97.048C735.194 96.024 734.383 95.1067 733.786 94.296C733.231 93.4853 732.954 92.6747 732.954 91.864C732.954 91.1387 733.21 90.456 733.722 89.816C733.935 89.56 734.639 88.7707 735.833 87.448C737.199 85.9973 738.095 84.952 738.522 84.312C740.783 81.0267 741.914 76.9307 741.914 72.024C741.914 71.7253 741.828 71.5547 741.658 71.512C741.487 71.4267 741.274 71.4053 741.018 71.448C740.804 71.448 740.655 71.448 740.57 71.448H732.122H731.866C731.908 71.96 731.93 72.7493 731.93 73.816C731.93 75.3093 731.866 77.208 731.738 79.512C731.695 80.8347 731.631 84.312 731.546 89.944C731.46 95.576 731.418 100.248 731.418 103.96C731.418 106.733 731.46 108.995 731.546 110.744C731.674 112.493 731.951 113.987 732.378 115.224H744.922ZM114.112 176.16C115.093 176.16 115.584 176.48 115.584 177.12V177.184C115.584 178.763 115.115 181.344 114.176 184.928C113.28 188.512 112.597 190.901 112.128 192.096C111.872 192.736 111.531 193.056 111.104 193.056C110.848 193.056 110.613 192.928 110.4 192.672C110.229 192.416 110.123 192.032 110.08 191.52C109.867 187.253 108.608 183.413 106.304 180H83.904C82.9653 181.28 82.112 182.901 81.344 184.864C80.6187 186.827 80.192 189.045 80.064 191.52C80.0213 192.544 79.7013 193.056 79.104 193.056C78.6773 193.056 78.336 192.736 78.08 192.096C77.4827 190.731 76.7573 188.683 75.904 185.952C75.0507 183.221 74.6027 181.088 74.56 179.552C74.56 179.509 74.56 179.467 74.56 179.424C74.6027 179.381 74.624 179.36 74.624 179.36C74.8373 178.976 75.392 178.549 76.288 178.08C77.184 177.568 78.2507 177.141 79.488 176.8C79.4453 176.373 79.424 175.691 79.424 174.752C79.424 172.277 79.5733 170.08 79.872 168.16C80.2133 165.685 80.6827 163.189 81.28 160.672C81.92 158.155 83.1787 155.189 85.056 151.776C86.9333 148.32 89.536 145.184 92.864 142.368C91.8827 140.107 91.1573 138.293 90.688 136.928C90.2613 135.563 90.0693 134.347 90.112 133.28C90.1547 132.256 90.6667 131.403 91.648 130.72C92.6293 129.995 93.6533 129.44 94.72 129.056C96.2133 128.501 97.2587 128.224 97.856 128.224C98.1547 128.224 98.3253 128.288 98.368 128.416C98.4107 128.501 98.3893 128.8 98.304 129.312C98.2613 129.781 98.2613 130.336 98.304 130.976C98.304 132.939 99.7973 137.312 102.784 144.096C104.448 147.936 106.069 152.736 107.648 158.496C109.227 164.256 110.208 168.267 110.592 170.528C111.019 172.875 111.531 174.752 112.128 176.16H114.112ZM87.744 164.256C87.6587 165.536 87.616 166.539 87.616 167.264C87.616 170.891 88.064 173.856 88.96 176.16H102.656C102.357 173.728 102.037 171.616 101.696 169.824C100.757 165.259 99.6267 160.779 98.304 156.384C96.9813 151.947 95.616 148.235 94.208 145.248C90.7093 148.917 88.5547 155.253 87.744 164.256ZM151.789 170.656C152.386 174.112 152.984 176.267 153.581 177.12C154.221 177.973 154.541 178.464 154.541 178.592C154.626 178.933 154.157 179.253 153.133 179.552C152.152 179.851 151.106 180.064 149.997 180.192C148.418 180.405 147.266 180.512 146.541 180.512C145.261 180.512 144.536 180.277 144.365 179.808C144.237 179.424 144.109 178.549 143.981 177.184C143.725 174.709 143.362 172.299 142.893 169.952C142.04 165.515 140.93 161.077 139.565 156.64C138.2 152.16 136.813 148.384 135.405 145.312C131.864 149.109 129.709 155.467 128.941 164.384C128.856 165.664 128.813 166.688 128.813 167.456C128.813 169.76 129.005 171.936 129.389 173.984C129.816 175.989 130.392 177.504 131.117 178.528C131.373 178.869 130.946 179.211 129.837 179.552C128.77 179.851 127.426 180.085 125.805 180.256C124.226 180.469 122.925 180.533 121.901 180.448C121.09 180.405 120.685 178.485 120.685 174.688C120.685 172 120.813 169.867 121.069 168.288C121.41 165.899 121.901 163.424 122.541 160.864C123.181 158.304 124.418 155.317 126.253 151.904C128.13 148.448 130.733 145.312 134.061 142.496C133.122 140.405 132.418 138.656 131.949 137.248C131.522 135.84 131.309 134.603 131.309 133.536C131.309 132.512 131.8 131.637 132.781 130.912C133.805 130.144 134.85 129.568 135.917 129.184C138.178 128.373 139.394 128.139 139.565 128.48C139.608 128.608 139.586 128.928 139.501 129.44C139.458 129.909 139.458 130.464 139.501 131.104C139.501 132.981 140.994 137.355 143.981 144.224C145.133 146.912 146.264 150.112 147.373 153.824C148.525 157.493 149.506 160.949 150.317 164.192C151.128 167.435 151.618 169.589 151.789 170.656ZM192.453 178.528C192.794 178.997 191.984 179.445 190.021 179.872C188.101 180.256 186.202 180.448 184.325 180.448L183.237 180.384C182.469 180.341 182.085 178.528 182.085 174.944C182.085 174.005 182.128 172.725 182.213 171.104L182.277 168.288L182.405 165.344C182.448 163.765 182.554 160.139 182.725 154.464C182.938 148.789 183.045 144.8 183.045 142.496C183.045 140.192 182.938 138.251 182.725 136.672C182.554 135.093 182.234 133.707 181.765 132.512H170.693C171.12 134.944 171.888 137.227 172.997 139.36C174.106 141.451 175.557 143.52 177.349 145.568C177.562 145.824 178.01 146.336 178.693 147.104C179.376 147.872 179.93 148.64 180.357 149.408C180.784 150.133 180.997 150.816 180.997 151.456C180.997 152.096 180.805 152.608 180.421 152.992C180.25 153.163 179.461 153.909 178.053 155.232C176.474 156.597 175.13 157.899 174.021 159.136C172.912 160.331 171.888 161.867 170.949 163.744C170.224 165.323 169.669 166.965 169.285 168.672C168.901 170.379 168.709 172 168.709 173.536C168.709 175.883 169.072 177.547 169.797 178.528C170.138 178.997 169.285 179.445 167.237 179.872C165.189 180.256 163.205 180.448 161.285 180.448L160.197 180.384C159.77 180.384 159.6 179.829 159.685 178.72C159.685 178.037 159.728 177.483 159.813 177.056C160.24 173.728 160.88 170.955 161.733 168.736C162.629 166.475 163.994 164.256 165.829 162.08C167.365 160.288 168.944 158.731 170.565 157.408C172.186 156.085 173.061 155.36 173.189 155.232C173.488 154.891 173.168 154.037 172.229 152.672C171.29 151.307 170.288 150.027 169.221 148.832C167.045 146.357 165.402 143.797 164.293 141.152C163.184 138.507 162.544 135.584 162.373 132.384C162.33 131.659 163.29 130.933 165.253 130.208C167.216 129.483 168.816 129.035 170.053 128.864C170.394 128.821 170.672 128.8 170.885 128.8C171.098 128.8 171.226 128.8 171.269 128.8H187.333C187.717 128.757 188.272 128.736 188.997 128.736C189.424 128.736 189.744 128.757 189.957 128.8C190.725 128.843 191.109 130.741 191.109 134.496C191.109 135.605 191.066 136.928 190.981 138.464L190.917 140.576C190.874 141.941 190.81 145.696 190.725 151.84C190.64 157.941 190.597 162.656 190.597 165.984C190.597 169.184 190.704 171.808 190.917 173.856C191.13 175.904 191.642 177.461 192.453 178.528ZM260.443 159.136C261.979 159.392 262.747 160.565 262.747 162.656C262.747 163.552 262.619 164.555 262.363 165.664C261.595 168.864 260.251 171.424 258.331 173.344C256.454 175.264 254.086 176.907 251.227 178.272C248.411 179.595 245.702 180.277 243.099 180.32C242.928 180.32 242.8 180.299 242.715 180.256C242.502 180.256 242.395 180.235 242.395 180.192C242.096 178.784 241.648 177.44 241.051 176.16C240.496 174.837 239.686 173.173 238.619 171.168C237.168 168.523 236.187 166.496 235.675 165.088C234.182 160.864 233.435 156.789 233.435 152.864C233.435 151.072 233.584 149.365 233.883 147.744C234.992 141.941 237.211 137.675 240.539 134.944C243.142 132.896 246.022 131.317 249.179 130.208C252.336 129.056 255.494 128.544 258.651 128.672C258.822 128.672 258.907 128.843 258.907 129.184V129.248V129.504C258.822 131.125 258.331 133.579 257.435 136.864C256.582 140.149 255.942 142.411 255.515 143.648C255.259 144.288 254.896 144.608 254.427 144.608C253.872 144.608 253.552 144.096 253.467 143.072C253.254 139.189 252.23 135.691 250.395 132.576C247.579 133.259 245.424 134.923 243.931 137.568C242.139 140.768 241.286 144.757 241.371 149.536C241.371 154.656 242.587 159.776 245.019 164.896C245.488 165.92 246.128 167.179 246.939 168.672C247.835 170.379 248.518 171.787 248.987 172.896C249.499 173.963 249.904 175.093 250.203 176.288C250.672 175.989 251.184 175.52 251.739 174.88C252.294 174.24 252.699 173.643 252.955 173.088C253.979 171.253 254.619 169.227 254.875 167.008C254.96 166.112 254.854 165.237 254.555 164.384C254.299 163.531 253.787 163.04 253.019 162.912C252.507 162.827 252.742 162.464 253.723 161.824C254.704 161.184 255.238 160.843 255.323 160.8C255.536 160.715 255.984 160.501 256.667 160.16C257.392 159.776 258.075 159.499 258.715 159.328C259.398 159.115 259.974 159.051 260.443 159.136ZM298.977 170.656C299.574 174.112 300.171 176.267 300.769 177.12C301.409 177.973 301.729 178.464 301.729 178.592C301.814 178.933 301.345 179.253 300.321 179.552C299.339 179.851 298.294 180.064 297.185 180.192C295.606 180.405 294.454 180.512 293.729 180.512C292.449 180.512 291.723 180.277 291.553 179.808C291.425 179.424 291.297 178.549 291.169 177.184C290.913 174.709 290.55 172.299 290.081 169.952C289.227 165.515 288.118 161.077 286.753 156.64C285.387 152.16 284.001 148.384 282.593 145.312C279.051 149.109 276.897 155.467 276.129 164.384C276.043 165.664 276.001 166.688 276.001 167.456C276.001 169.76 276.193 171.936 276.577 173.984C277.003 175.989 277.579 177.504 278.305 178.528C278.561 178.869 278.134 179.211 277.025 179.552C275.958 179.851 274.614 180.085 272.993 180.256C271.414 180.469 270.113 180.533 269.089 180.448C268.278 180.405 267.873 178.485 267.873 174.688C267.873 172 268.001 169.867 268.257 168.288C268.598 165.899 269.089 163.424 269.729 160.864C270.369 158.304 271.606 155.317 273.441 151.904C275.318 148.448 277.921 145.312 281.249 142.496C280.31 140.405 279.606 138.656 279.137 137.248C278.71 135.84 278.497 134.603 278.497 133.536C278.497 132.512 278.987 131.637 279.969 130.912C280.993 130.144 282.038 129.568 283.105 129.184C285.366 128.373 286.582 128.139 286.753 128.48C286.795 128.608 286.774 128.928 286.689 129.44C286.646 129.909 286.646 130.464 286.689 131.104C286.689 132.981 288.182 137.355 291.169 144.224C292.321 146.912 293.451 150.112 294.561 153.824C295.713 157.493 296.694 160.949 297.505 164.192C298.315 167.435 298.806 169.589 298.977 170.656ZM338.553 170.272C339.15 173.728 339.747 175.883 340.345 176.736C340.985 177.589 341.305 178.08 341.305 178.208C341.347 178.549 340.878 178.869 339.897 179.168C338.958 179.424 337.913 179.637 336.761 179.808C335.139 180.021 333.987 180.128 333.305 180.128C332.025 180.128 331.299 179.893 331.129 179.424C331.001 179.083 330.702 177.568 330.233 174.88C330.019 173.856 329.721 172.448 329.337 170.656C328.995 168.821 328.761 167.712 328.633 167.328C326.969 169.845 324.643 172.107 321.657 174.112C318.713 176.075 315.897 177.632 313.209 178.784C311.075 179.68 309.411 180.107 308.217 180.064C307.747 180.021 307.406 179.36 307.193 178.08C306.979 176.8 306.873 175.221 306.873 173.344C306.873 170.656 307.022 168.416 307.321 166.624C307.747 163.936 308.259 161.397 308.857 159.008C309.454 156.619 310.67 153.717 312.505 150.304C314.382 146.848 316.963 143.712 320.249 140.896C319.481 139.061 318.905 137.525 318.521 136.288C318.179 135.008 318.03 133.899 318.073 132.96C318.115 132.021 318.627 131.189 319.609 130.464C320.59 129.739 321.614 129.184 322.681 128.8C323.491 128.501 324.259 128.267 324.985 128.096C325.71 127.925 326.137 127.925 326.265 128.096C326.35 128.224 326.35 128.523 326.265 128.992C326.222 129.461 326.201 129.909 326.201 130.336C326.201 132.512 327.694 137.013 330.681 143.84C332.345 147.68 333.966 152.48 335.545 158.24C337.166 164 338.169 168.011 338.553 170.272ZM316.473 173.856C318.009 172.96 319.651 171.509 321.401 169.504C323.15 167.456 324.558 165.408 325.625 163.36C326.734 161.269 327.182 159.755 326.969 158.816C326.457 156.683 325.902 154.805 325.305 153.184C324.707 151.52 323.939 149.472 323.001 147.04L322.041 144.736C321.87 144.309 321.721 143.989 321.593 143.776C318.265 147.104 316.153 153.419 315.257 162.72L315.129 164.192C314.83 167.093 314.681 169.12 314.681 170.272C314.681 172.789 315.086 174.048 315.897 174.048C316.11 174.048 316.302 173.984 316.473 173.856ZM372.803 159.136C376.259 164.299 377.987 170.037 377.987 176.352C377.987 176.864 377.496 177.397 376.515 177.952C375.576 178.507 374.488 178.997 373.251 179.424C372.014 179.808 371.032 180 370.307 180L348.995 179.936C348.227 179.979 347.843 178.208 347.843 174.624C347.843 173.685 347.907 171.552 348.035 168.224L348.163 165.216C348.206 163.68 348.312 160.075 348.483 154.4C348.696 148.725 348.803 144.757 348.803 142.496C348.803 139.509 348.632 137.12 348.291 135.328C347.992 133.493 347.395 131.957 346.499 130.72C346.158 130.251 346.99 129.803 348.995 129.376C351 128.949 352.942 128.736 354.819 128.736H356.931L375.427 128.672L375.619 128.864C375.576 131.723 375.022 134.475 373.955 137.12C372.931 139.765 371.459 142.197 369.539 144.416L368.643 145.312C367.747 146.123 367.022 146.869 366.467 147.552C365.955 148.235 365.699 148.917 365.699 149.6C365.699 149.941 365.806 150.325 366.019 150.752C366.659 151.819 367.832 153.291 369.539 155.168C371.075 156.875 372.163 158.197 372.803 159.136ZM369.859 176.224C369.816 173.835 369.155 171.147 367.875 168.16C366.638 165.131 364.824 162.208 362.435 159.392L361.155 158.048C360.131 157.024 359.32 156.107 358.723 155.296C358.168 154.485 357.891 153.675 357.891 152.864C357.891 152.139 358.147 151.456 358.659 150.816C358.872 150.56 359.576 149.771 360.771 148.448C362.136 146.997 363.032 145.952 363.459 145.312C365.72 142.027 366.851 137.931 366.851 133.024C366.851 132.725 366.766 132.555 366.595 132.512C366.424 132.427 366.211 132.405 365.955 132.448C365.742 132.448 365.592 132.448 365.507 132.448H357.059H356.803C356.846 132.96 356.867 133.749 356.867 134.816C356.867 136.309 356.803 138.208 356.675 140.512C356.632 141.835 356.568 145.312 356.483 150.944C356.398 156.576 356.355 161.248 356.355 164.96C356.355 167.733 356.398 169.995 356.483 171.744C356.611 173.493 356.888 174.987 357.315 176.224H369.859ZM415.891 178.528C416.232 178.997 415.421 179.445 413.458 179.872C411.539 180.256 409.64 180.448 407.763 180.448L406.675 180.384C405.907 180.341 405.523 178.528 405.523 174.944C405.523 174.005 405.565 172.725 405.651 171.104L405.715 168.288L405.843 165.344C405.885 163.765 405.992 160.139 406.163 154.464C406.376 148.789 406.483 144.8 406.483 142.496C406.483 140.192 406.376 138.251 406.163 136.672C405.992 135.093 405.672 133.707 405.203 132.512H394.131C394.557 134.944 395.325 137.227 396.435 139.36C397.544 141.451 398.995 143.52 400.787 145.568C401 145.824 401.448 146.336 402.131 147.104C402.813 147.872 403.368 148.64 403.795 149.408C404.221 150.133 404.435 150.816 404.435 151.456C404.435 152.096 404.243 152.608 403.859 152.992C403.688 153.163 402.899 153.909 401.491 155.232C399.912 156.597 398.568 157.899 397.458 159.136C396.349 160.331 395.325 161.867 394.387 163.744C393.661 165.323 393.107 166.965 392.723 168.672C392.339 170.379 392.147 172 392.147 173.536C392.147 175.883 392.509 177.547 393.235 178.528C393.576 178.997 392.723 179.445 390.675 179.872C388.627 180.256 386.643 180.448 384.723 180.448L383.635 180.384C383.208 180.384 383.037 179.829 383.123 178.72C383.123 178.037 383.165 177.483 383.251 177.056C383.677 173.728 384.317 170.955 385.171 168.736C386.067 166.475 387.432 164.256 389.267 162.08C390.803 160.288 392.381 158.731 394.003 157.408C395.624 156.085 396.499 155.36 396.627 155.232C396.925 154.891 396.605 154.037 395.667 152.672C394.728 151.307 393.725 150.027 392.659 148.832C390.483 146.357 388.84 143.797 387.731 141.152C386.621 138.507 385.981 135.584 385.811 132.384C385.768 131.659 386.728 130.933 388.691 130.208C390.653 129.483 392.253 129.035 393.491 128.864C393.832 128.821 394.109 128.8 394.323 128.8C394.536 128.8 394.664 128.8 394.707 128.8H410.771C411.155 128.757 411.709 128.736 412.435 128.736C412.861 128.736 413.181 128.757 413.395 128.8C414.163 128.843 414.547 130.741 414.547 134.496C414.547 135.605 414.504 136.928 414.419 138.464L414.354 140.576C414.312 141.941 414.248 145.696 414.163 151.84C414.077 157.941 414.035 162.656 414.035 165.984C414.035 169.184 414.141 171.808 414.354 173.856C414.568 175.904 415.08 177.461 415.891 178.528ZM451.972 178.656C452.313 179.125 451.503 179.573 449.54 180C447.62 180.384 445.721 180.576 443.844 180.576L442.756 180.512C441.988 180.469 441.604 178.677 441.604 175.136C441.604 174.112 441.668 171.872 441.796 168.416C442.009 162.784 442.137 158.688 442.18 156.128H430.66C430.617 159.2 430.596 162.528 430.596 166.112C430.596 169.312 430.703 171.936 430.916 173.984C431.129 176.032 431.641 177.589 432.452 178.656C432.793 179.125 431.983 179.573 430.02 180C428.1 180.384 426.201 180.576 424.324 180.576L423.236 180.512C422.468 180.469 422.084 178.613 422.084 174.944C422.084 173.92 422.148 171.744 422.276 168.416L422.404 165.472C422.447 163.893 422.553 160.267 422.724 154.592C422.937 148.917 423.044 144.928 423.044 142.624C423.044 139.595 422.937 137.483 422.724 136.288C422.553 135.051 422.02 133.835 421.124 132.64C420.868 132.256 421.273 131.723 422.34 131.04C423.407 130.357 424.687 129.76 426.18 129.248C427.716 128.693 428.975 128.459 429.956 128.544C430.724 128.587 431.108 130.485 431.108 134.24C431.108 135.136 431.023 137.291 430.852 140.704L430.724 152.352H442.308L442.5 141.664C442.5 139.061 442.393 137.184 442.18 136.032C442.009 134.88 441.497 133.749 440.644 132.64C440.388 132.256 440.772 131.723 441.796 131.04C442.863 130.357 444.143 129.76 445.636 129.248C447.172 128.693 448.431 128.459 449.412 128.544C450.18 128.587 450.564 130.592 450.564 134.56C450.564 136.224 450.5 138.272 450.372 140.704L450.052 165.152C450.052 168.651 450.159 171.488 450.372 173.664C450.585 175.84 451.119 177.504 451.972 178.656ZM484.193 159.136C485.729 159.392 486.497 160.565 486.497 162.656C486.497 163.552 486.369 164.555 486.113 165.664C485.345 168.864 484.001 171.424 482.081 173.344C480.204 175.264 477.836 176.907 474.977 178.272C472.161 179.595 469.452 180.277 466.849 180.32C466.678 180.32 466.55 180.299 466.465 180.256C466.252 180.256 466.145 180.235 466.145 180.192C465.846 178.784 465.398 177.44 464.801 176.16C464.246 174.837 463.436 173.173 462.369 171.168C460.918 168.523 459.937 166.496 459.425 165.088C457.932 160.864 457.185 156.789 457.185 152.864C457.185 151.072 457.334 149.365 457.633 147.744C458.742 141.941 460.961 137.675 464.289 134.944C466.892 132.896 469.772 131.317 472.929 130.208C476.086 129.056 479.244 128.544 482.401 128.672C482.572 128.672 482.657 128.843 482.657 129.184V129.248V129.504C482.572 131.125 482.081 133.579 481.185 136.864C480.332 140.149 479.692 142.411 479.265 143.648C479.009 144.288 478.646 144.608 478.177 144.608C477.622 144.608 477.302 144.096 477.217 143.072C477.004 139.189 475.98 135.691 474.145 132.576C471.329 133.259 469.174 134.923 467.681 137.568C465.889 140.768 465.036 144.757 465.121 149.536C465.121 154.656 466.337 159.776 468.769 164.896C469.238 165.92 469.878 167.179 470.689 168.672C471.585 170.379 472.268 171.787 472.737 172.896C473.249 173.963 473.654 175.093 473.953 176.288C474.422 175.989 474.934 175.52 475.489 174.88C476.044 174.24 476.449 173.643 476.705 173.088C477.729 171.253 478.369 169.227 478.625 167.008C478.71 166.112 478.604 165.237 478.305 164.384C478.049 163.531 477.537 163.04 476.769 162.912C476.257 162.827 476.492 162.464 477.473 161.824C478.454 161.184 478.988 160.843 479.073 160.8C479.286 160.715 479.734 160.501 480.417 160.16C481.142 159.776 481.825 159.499 482.465 159.328C483.148 159.115 483.724 159.051 484.193 159.136ZM501.095 167.456C501.095 170.101 501.223 172.363 501.479 174.24C501.735 176.075 502.225 177.504 502.951 178.528C503.292 178.997 502.481 179.445 500.519 179.872C498.599 180.299 496.7 180.512 494.823 180.512L493.735 180.448C492.967 180.405 492.583 178.592 492.583 175.008C492.583 173.984 492.647 171.744 492.775 168.288C492.775 167.563 492.86 164.043 493.031 157.728C493.329 146.976 493.479 141.301 493.479 140.704C493.479 138.272 493.372 136.587 493.159 135.648C492.988 134.709 492.497 133.685 491.687 132.576C491.388 132.192 491.751 131.659 492.775 130.976C493.841 130.293 495.143 129.696 496.679 129.184C498.215 128.629 499.473 128.395 500.455 128.48C501.18 128.523 501.543 130.485 501.543 134.368C501.543 136.075 501.479 138.144 501.351 140.576C501.308 143.435 501.244 147.296 501.159 152.16C501.116 157.024 501.095 161.333 501.095 165.088V167.456ZM511.783 153.184C514.641 156.811 517.052 160.565 519.015 164.448C521.02 168.288 522.556 171.659 523.623 174.56C524.305 176.352 524.839 177.483 525.222 177.952C525.649 178.379 525.841 178.635 525.799 178.72C525.628 179.189 524.519 179.616 522.471 180C520.423 180.384 518.716 180.576 517.351 180.576C516.796 180.576 516.433 180.448 516.263 180.192C516.092 179.936 515.879 179.339 515.623 178.4C515.537 178.101 515.388 177.632 515.175 176.992C515.004 176.352 514.812 175.733 514.599 175.136C513.788 172.747 512.423 169.845 510.503 166.432C508.583 162.976 506.577 159.904 504.487 157.216C504.316 156.96 503.975 156.533 503.463 155.936C502.951 155.296 502.567 154.677 502.311 154.08C502.097 153.483 501.991 152.821 501.991 152.096C501.991 150.389 502.673 147.808 504.039 144.352C505.233 141.365 507.089 138.741 509.607 136.48C512.167 134.176 514.748 132.405 517.351 131.168C518.673 130.528 519.996 130.037 521.319 129.696C522.641 129.312 523.729 129.12 524.583 129.12C525.521 129.12 525.991 129.355 525.991 129.824C525.991 131.403 525.521 133.963 524.583 137.504C523.687 141.003 523.004 143.243 522.535 144.224C522.279 144.907 521.937 145.248 521.511 145.248C521.255 145.248 521.02 145.12 520.807 144.864C520.636 144.565 520.529 144.181 520.487 143.712C520.316 141.493 520.017 139.659 519.591 138.208C519.164 136.757 518.737 135.669 518.311 134.944C517.927 134.176 517.735 133.856 517.735 133.984C516.625 134.539 515.431 135.563 514.151 137.056C512.871 138.549 511.911 140.256 511.271 142.176C510.759 143.712 510.396 144.907 510.183 145.76C509.969 146.613 509.863 147.445 509.863 148.256C509.863 149.963 510.503 151.605 511.783 153.184ZM562.739 178.464C563.08 178.933 562.269 179.381 560.307 179.808C558.387 180.235 556.488 180.448 554.611 180.448L553.523 180.384C552.755 180.341 552.371 178.464 552.371 174.752C552.371 173.771 552.435 171.616 552.563 168.288L553.139 150.688C549.725 153.376 546.781 156.32 544.307 159.52C541.875 162.72 540.659 165.6 540.659 168.16V170.4C540.787 172.32 540.979 173.963 541.235 175.328C541.491 176.651 541.896 177.696 542.451 178.464C542.792 178.933 541.981 179.381 540.019 179.808C538.099 180.235 536.2 180.448 534.323 180.448L533.235 180.384C532.467 180.341 532.083 178.571 532.083 175.072C532.083 173.323 532.147 171.68 532.275 170.144L532.339 168.288C532.339 167.477 532.424 164 532.595 157.856C532.893 150.176 533.043 144.736 533.043 141.536C533.043 138.933 532.936 137.056 532.723 135.904C532.552 134.752 532.04 133.621 531.187 132.512C530.931 132.128 531.315 131.595 532.339 130.912C533.405 130.229 534.685 129.632 536.179 129.12C537.715 128.565 538.973 128.331 539.955 128.416C540.723 128.459 541.107 130.464 541.107 134.432C541.107 136.053 541.043 138.08 540.915 140.512C540.915 140.427 540.872 142.411 540.787 146.464C540.787 148.384 540.744 151.435 540.659 155.616C542.28 153.909 544.115 152.373 546.163 151.008C548.253 149.643 550.6 148.299 553.203 146.976L553.331 142.496C553.331 139.467 553.224 137.355 553.011 136.16C552.84 134.923 552.307 133.707 551.411 132.512C551.155 132.128 551.56 131.595 552.627 130.912C553.693 130.229 554.973 129.632 556.467 129.12C558.003 128.565 559.261 128.331 560.243 128.416C561.011 128.459 561.395 130.357 561.395 134.112C561.395 134.965 561.309 137.099 561.139 140.512C561.096 143.669 561.032 147.872 560.947 153.12C560.904 158.368 560.882 162.656 560.882 165.984C560.882 169.184 560.989 171.808 561.203 173.856C561.416 175.861 561.928 177.397 562.739 178.464ZM599.039 167.904C600.276 170.635 601.172 172.896 601.727 174.688C602.324 176.48 602.644 177.675 602.687 178.272C602.772 178.571 602.388 178.891 601.535 179.232C600.682 179.531 599.722 179.744 598.655 179.872C597.375 180.043 596.223 180.128 595.199 180.128C593.919 180.128 593.194 179.893 593.023 179.424C592.98 179.339 592.874 178.763 592.703 177.696C592.447 176.16 592.17 174.816 591.871 173.664C591.615 172.512 591.231 171.253 590.719 169.888C589.055 165.664 586.986 161.803 584.511 158.304C583.871 157.365 583.295 156.555 582.783 155.872C582.655 155.701 582.506 155.509 582.335 155.296C582.164 155.083 581.972 154.805 581.759 154.464C579.924 158.901 578.559 162.976 577.663 166.688C576.81 170.357 576.383 173.195 576.383 175.2C576.383 176.181 576.532 176.992 576.831 177.632C577.13 178.272 577.279 178.656 577.279 178.784C577.279 178.912 577.108 179.04 576.767 179.168C575.53 179.595 574.442 179.872 573.503 180C572.564 180.171 571.604 180.256 570.623 180.256C569.727 180.256 569.108 180.149 568.767 179.936C568.426 179.723 568.191 179.339 568.063 178.784C567.978 178.528 567.935 178.059 567.935 177.376C567.935 174.688 568.98 170.677 571.071 165.344C573.162 160.011 575.508 154.763 578.111 149.6C578.026 149.472 577.471 148.725 576.447 147.36L574.015 144.032C572.308 141.728 571.092 139.893 570.367 138.528C569.684 137.12 569.343 135.733 569.343 134.368C569.343 133.856 569.364 133.472 569.407 133.216C569.535 131.851 570.196 130.827 571.391 130.144C572.586 129.461 573.716 128.971 574.783 128.672C575.85 128.373 576.532 128.181 576.831 128.096C577.386 127.883 577.834 127.776 578.175 127.776C578.388 127.776 578.495 127.84 578.495 127.968C578.495 128.139 578.303 128.416 577.919 128.8C577.62 129.099 577.386 129.419 577.215 129.76C577.087 130.059 577.023 130.507 577.023 131.104C577.023 131.787 577.066 132.363 577.151 132.832C577.364 133.984 579.22 136.949 582.719 141.728C585.706 137.376 588.863 134.048 592.191 131.744V131.68L592.767 131.36C594.26 130.421 595.647 129.803 596.927 129.504C598.548 128.949 600.042 128.672 601.407 128.672C602.175 128.672 602.559 128.8 602.559 129.056C602.559 130.592 602.111 133.088 601.215 136.544C600.319 140 599.636 142.325 599.167 143.52C599.039 143.819 598.868 144.053 598.655 144.224C598.484 144.395 598.314 144.48 598.143 144.48C597.887 144.48 597.652 144.352 597.439 144.096C597.268 143.84 597.162 143.456 597.119 142.944C596.906 139.232 595.882 136.139 594.047 133.664C591.914 135.627 589.268 139.509 586.111 145.312C586.111 145.397 586.026 145.589 585.855 145.888C586.196 146.357 586.495 146.784 586.751 147.168C587.05 147.509 587.284 147.808 587.455 148.064L589.183 150.496C591.188 153.269 592.895 155.915 594.303 158.432C595.754 160.907 597.332 164.064 599.039 167.904ZM101.568 220.136C103.104 220.392 103.872 221.565 103.872 223.656C103.872 224.552 103.744 225.555 103.488 226.664C102.72 229.864 101.376 232.424 99.456 234.344C97.5787 236.264 95.2107 237.907 92.352 239.272C89.536 240.595 86.8267 241.277 84.224 241.32C84.0533 241.32 83.9253 241.299 83.84 241.256C83.6267 241.256 83.52 241.235 83.52 241.192C83.2213 239.784 82.7733 238.44 82.176 237.16C81.6213 235.837 80.8107 234.173 79.744 232.168C78.2933 229.523 77.312 227.496 76.8 226.088C75.3067 221.864 74.56 217.789 74.56 213.864C74.56 212.072 74.7093 210.365 75.008 208.744C76.1173 202.941 78.336 198.675 81.664 195.944C84.2667 193.896 87.1467 192.317 90.304 191.208C93.4613 190.056 96.6187 189.544 99.776 189.672C99.9467 189.672 100.032 189.843 100.032 190.184V190.248V190.504C99.9467 192.125 99.456 194.579 98.56 197.864C97.7067 201.149 97.0667 203.411 96.64 204.648C96.384 205.288 96.0213 205.608 95.552 205.608C94.9973 205.608 94.6773 205.096 94.592 204.072C94.3787 200.189 93.3547 196.691 91.52 193.576C88.704 194.259 86.5493 195.923 85.056 198.568C83.264 201.768 82.4107 205.757 82.496 210.536C82.496 215.656 83.712 220.776 86.144 225.896C86.6133 226.92 87.2533 228.179 88.064 229.672C88.96 231.379 89.6427 232.787 90.112 233.896C90.624 234.963 91.0293 236.093 91.328 237.288C91.7973 236.989 92.3093 236.52 92.864 235.88C93.4187 235.24 93.824 234.643 94.08 234.088C95.104 232.253 95.744 230.227 96 228.008C96.0853 227.112 95.9787 226.237 95.68 225.384C95.424 224.531 94.912 224.04 94.144 223.912C93.632 223.827 93.8667 223.464 94.848 222.824C95.8293 222.184 96.3627 221.843 96.448 221.8C96.6613 221.715 97.1093 221.501 97.792 221.16C98.5173 220.776 99.2 220.499 99.84 220.328C100.523 220.115 101.099 220.051 101.568 220.136ZM141.894 189.992C143.174 189.736 144.496 189.608 145.862 189.608C147.611 189.608 148.486 189.821 148.486 190.248C148.443 191.784 147.974 194.259 147.078 197.672C146.182 201.085 145.499 203.432 145.03 204.712C144.774 205.352 144.432 205.672 144.006 205.672C143.75 205.672 143.515 205.544 143.302 205.288C143.131 205.032 143.024 204.648 142.982 204.136C142.768 200.509 141.83 197.203 140.166 194.216C138.587 195.709 137.179 198.227 135.942 201.768C134.96 204.371 134.107 208.019 133.382 212.712C132.699 217.363 132.23 221.779 131.974 225.96C131.803 228.264 131.718 230.035 131.718 231.272C131.718 235.24 132.272 237.971 133.382 239.464C133.723 239.933 132.912 240.381 130.95 240.808C128.987 241.192 127.088 241.384 125.253 241.384L124.166 241.32C123.483 241.32 123.142 239.955 123.142 237.224C123.142 235.517 123.312 232.851 123.654 229.224C123.91 225.981 124.294 222.632 124.806 219.176C124.208 219.432 123.526 219.645 122.758 219.816C122.075 219.944 121.392 220.008 120.71 220.008C118.619 220.008 117.04 219.155 115.974 217.448C115.248 216.296 114.694 215.059 114.31 213.736C113.926 212.371 113.542 210.685 113.158 208.68C113.03 207.955 112.88 206.867 112.71 205.416C112.283 202.429 111.92 200.211 111.622 198.76C111.579 198.589 111.472 198.077 111.302 197.224C111.131 196.328 110.854 195.539 110.47 194.856C110.128 194.131 109.702 193.661 109.19 193.448C108.635 193.277 108.87 192.915 109.894 192.36C110.96 191.763 111.515 191.443 111.558 191.4C111.686 191.315 112.262 190.995 113.286 190.44C114.31 189.885 115.227 189.608 116.038 189.608C116.166 189.608 116.358 189.651 116.614 189.736C117.424 190.035 118 190.589 118.342 191.4C118.726 192.211 119.067 193.277 119.366 194.6C119.622 195.837 119.92 197.587 120.262 199.848C120.56 201.811 120.774 203.176 120.902 203.944C121.286 206.504 121.798 208.915 122.438 211.176C123.078 213.395 124.08 214.952 125.446 215.848C126.512 210.173 128.07 205.075 130.118 200.552C132.166 196.029 134.811 192.915 138.054 191.208L138.246 191.08C138.971 190.739 139.696 190.483 140.422 190.312C140.72 190.184 141.211 190.077 141.894 189.992ZM201.175 239.08C201.516 239.549 200.727 239.997 198.807 240.424C196.887 240.808 195.009 241 193.175 241H181.335C181.121 242.963 180.716 245.288 180.119 247.976C179.521 250.664 179.095 252.371 178.839 253.096C178.583 253.736 178.22 254.056 177.751 254.056C177.495 254.056 177.281 253.907 177.111 253.608C176.94 253.352 176.833 252.989 176.791 252.52C176.535 248.381 175.553 244.669 173.847 241.384C173.633 241.256 173.484 241.128 173.399 241H155.735C154.967 240.872 154.583 239.123 154.583 235.752C154.583 234.941 154.625 233.725 154.711 232.104L154.775 229.288L154.903 226.344C154.945 224.765 155.052 221.139 155.223 215.464C155.436 209.789 155.543 205.8 155.543 203.496C155.543 200.467 155.436 198.355 155.223 197.16C155.052 195.923 154.54 194.707 153.687 193.512C153.431 193.128 153.815 192.595 154.839 191.912C155.905 191.229 157.185 190.632 158.679 190.12C160.215 189.565 161.473 189.331 162.455 189.416C163.223 189.459 163.607 191.421 163.607 195.304C163.607 196.413 163.564 197.779 163.479 199.4L163.415 201.576C163.372 202.941 163.308 206.867 163.223 213.352C163.137 219.837 163.095 224.531 163.095 227.432C163.095 229.736 163.159 231.677 163.287 233.256C163.415 234.835 163.671 236.179 164.055 237.288H172.823C172.78 235.411 172.823 233.384 172.951 231.208L173.015 229.288C173.484 214.483 173.719 205.565 173.719 202.536C173.719 199.933 173.612 198.056 173.399 196.904C173.228 195.752 172.716 194.621 171.863 193.512C171.607 193.128 171.991 192.595 173.015 191.912C174.081 191.229 175.361 190.632 176.855 190.12C178.391 189.565 179.649 189.331 180.631 189.416C181.399 189.459 181.783 191.357 181.783 195.112C181.783 196.221 181.74 197.629 181.655 199.336L181.591 201.576L181.335 227.496C181.335 229.715 181.377 231.613 181.463 233.192C181.591 234.771 181.825 236.136 182.167 237.288H190.871C190.828 236.52 190.871 234.429 190.999 231.016L191.062 229.288C191.532 214.483 191.767 205.565 191.767 202.536C191.767 200.019 191.66 198.248 191.447 197.224C191.276 196.157 190.764 195.069 189.911 193.96C189.655 193.576 190.06 193 191.127 192.232C192.193 191.464 193.473 190.781 194.967 190.184C196.503 189.587 197.761 189.331 198.743 189.416C199.511 189.459 199.895 191.357 199.895 195.112C199.895 196.008 199.809 198.163 199.639 201.576C199.596 204.733 199.532 208.936 199.447 214.184C199.404 219.389 199.383 223.677 199.383 227.048C199.383 230.163 199.489 232.68 199.703 234.6C199.916 236.52 200.407 238.013 201.175 239.08ZM233.701 221.032C235.279 221.331 236.069 222.525 236.069 224.616C236.069 225.768 235.877 226.877 235.493 227.944C234.682 230.717 233.274 232.979 231.269 234.728C229.221 236.52 226.831 238.056 224.101 239.336C221.413 240.616 218.853 241.277 216.421 241.32C216.25 241.32 216.122 241.299 216.037 241.256C215.823 241.256 215.717 241.235 215.717 241.192C215.418 239.827 214.949 238.461 214.309 237.096C213.669 235.731 212.837 234.173 211.812 232.424C210.234 229.736 209.167 227.624 208.613 226.088C207.119 221.949 206.373 217.917 206.373 213.992C206.373 212.115 206.522 210.365 206.821 208.744C207.29 206.227 208.122 203.859 209.317 201.64C210.511 199.379 212.026 197.48 213.861 195.944C216.421 193.896 219.279 192.317 222.437 191.208C225.637 190.056 228.815 189.544 231.973 189.672C232.143 189.672 232.229 189.864 232.229 190.248V190.504C232.186 192.125 231.717 194.621 230.821 197.992C229.925 201.32 229.242 203.539 228.773 204.648C228.517 205.288 228.175 205.608 227.749 205.608C227.493 205.608 227.279 205.48 227.109 205.224C226.938 204.925 226.831 204.541 226.789 204.072C226.533 199.976 225.487 196.456 223.653 193.512C222.543 193.853 221.413 194.451 220.26 195.304C219.109 196.115 218.106 197.203 217.253 198.568C216.229 200.275 215.461 202.173 214.949 204.264C214.479 206.312 214.245 208.403 214.245 210.536C214.245 211.219 214.266 211.709 214.309 212.008L214.693 211.752C216.143 210.899 217.85 210.28 219.812 209.896C221.775 209.512 223.738 209.32 225.701 209.32C227.365 209.32 228.773 209.448 229.925 209.704C231.119 209.917 231.717 210.195 231.717 210.536C231.717 213.181 230.33 215.827 227.557 218.472C226.959 219.069 226.511 219.368 226.213 219.368C225.786 219.368 225.509 218.877 225.381 217.896C224.997 214.824 222.949 213.288 219.237 213.288C217.701 213.288 216.101 213.523 214.437 213.992C214.863 217.832 215.994 221.8 217.829 225.896L219.877 229.608C221.754 232.68 222.949 235.197 223.461 237.16C224.015 236.861 224.762 236.243 225.701 235.304C226.895 233.939 227.685 231.997 228.069 229.48C228.111 229.224 228.133 228.797 228.133 228.2C228.133 226.152 227.514 225.021 226.277 224.808C225.893 224.723 226.085 224.403 226.853 223.848C227.663 223.251 228.261 222.867 228.645 222.696C228.858 222.611 229.306 222.397 229.989 222.056C230.714 221.672 231.397 221.395 232.037 221.224C232.677 221.011 233.231 220.947 233.701 221.032ZM268.193 220.136C269.729 220.392 270.497 221.565 270.497 223.656C270.497 224.552 270.369 225.555 270.113 226.664C269.345 229.864 268.001 232.424 266.081 234.344C264.204 236.264 261.836 237.907 258.977 239.272C256.161 240.595 253.452 241.277 250.849 241.32C250.678 241.32 250.55 241.299 250.465 241.256C250.252 241.256 250.145 241.235 250.145 241.192C249.846 239.784 249.398 238.44 248.801 237.16C248.246 235.837 247.436 234.173 246.369 232.168C244.918 229.523 243.937 227.496 243.425 226.088C241.932 221.864 241.185 217.789 241.185 213.864C241.185 212.072 241.334 210.365 241.633 208.744C242.742 202.941 244.961 198.675 248.289 195.944C250.892 193.896 253.772 192.317 256.929 191.208C260.086 190.056 263.244 189.544 266.401 189.672C266.572 189.672 266.657 189.843 266.657 190.184V190.248V190.504C266.572 192.125 266.081 194.579 265.185 197.864C264.332 201.149 263.692 203.411 263.265 204.648C263.009 205.288 262.646 205.608 262.177 205.608C261.622 205.608 261.302 205.096 261.217 204.072C261.004 200.189 259.98 196.691 258.145 193.576C255.329 194.259 253.174 195.923 251.681 198.568C249.889 201.768 249.036 205.757 249.121 210.536C249.121 215.656 250.337 220.776 252.769 225.896C253.238 226.92 253.878 228.179 254.689 229.672C255.585 231.379 256.268 232.787 256.737 233.896C257.249 234.963 257.654 236.093 257.953 237.288C258.422 236.989 258.934 236.52 259.489 235.88C260.044 235.24 260.449 234.643 260.705 234.088C261.729 232.253 262.369 230.227 262.625 228.008C262.71 227.112 262.604 226.237 262.305 225.384C262.049 224.531 261.537 224.04 260.769 223.912C260.257 223.827 260.492 223.464 261.473 222.824C262.454 222.184 262.988 221.843 263.073 221.8C263.286 221.715 263.734 221.501 264.417 221.16C265.142 220.776 265.825 220.499 266.465 220.328C267.148 220.115 267.724 220.051 268.193 220.136ZM309.671 189.928C310.311 189.928 310.631 190.056 310.631 190.312C310.631 192.488 310.204 195.24 309.351 198.568C308.54 201.853 307.836 204.264 307.239 205.8C306.983 206.397 306.641 206.696 306.215 206.696C305.959 206.696 305.724 206.568 305.511 206.312C305.34 206.056 305.233 205.672 305.191 205.16C304.935 201.107 303.719 197.267 301.543 193.64H297.447C297.489 194.152 297.511 194.941 297.511 196.008C297.511 197.501 297.447 199.4 297.319 201.704C297.276 203.069 297.212 206.824 297.127 212.968C297.041 219.069 296.999 223.784 296.999 227.112C296.999 230.312 297.105 232.936 297.319 234.984C297.532 237.032 298.044 238.589 298.855 239.656C299.196 240.125 298.385 240.573 296.423 241C294.503 241.384 292.604 241.576 290.727 241.576L289.639 241.512C288.871 241.469 288.487 239.613 288.487 235.944C288.487 234.92 288.551 232.744 288.679 229.416L288.807 226.472C288.849 224.893 288.956 221.267 289.127 215.592C289.34 209.917 289.447 205.928 289.447 203.624C289.447 201.277 289.34 199.336 289.127 197.8C288.956 196.221 288.615 194.835 288.103 193.64H284.071C282.279 197.821 281.276 201.661 281.062 205.16C281.02 206.184 280.7 206.696 280.103 206.696C279.676 206.696 279.335 206.397 279.079 205.8C278.439 204.051 277.692 201.789 276.839 199.016C276.028 196.2 275.623 194.024 275.623 192.488C275.623 191.763 276.391 191.208 277.927 190.824C279.463 190.44 281.191 190.184 283.111 190.056C285.031 189.928 285.991 189.885 285.991 189.928H309.671ZM342.116 220.136C345.572 225.299 347.3 231.037 347.3 237.352C347.3 237.864 346.809 238.397 345.828 238.952C344.889 239.507 343.801 239.997 342.564 240.424C341.326 240.808 340.345 241 339.62 241L318.308 240.936C317.54 240.979 317.156 239.208 317.156 235.624C317.156 234.685 317.22 232.552 317.348 229.224L317.476 226.216C317.518 224.68 317.625 221.075 317.796 215.4C318.009 209.725 318.116 205.757 318.116 203.496C318.116 200.509 317.945 198.12 317.604 196.328C317.305 194.493 316.708 192.957 315.812 191.72C315.47 191.251 316.302 190.803 318.308 190.376C320.313 189.949 322.254 189.736 324.132 189.736H326.244L344.74 189.672L344.932 189.864C344.889 192.723 344.334 195.475 343.268 198.12C342.244 200.765 340.772 203.197 338.852 205.416L337.956 206.312C337.06 207.123 336.334 207.869 335.78 208.552C335.268 209.235 335.012 209.917 335.012 210.6C335.012 210.941 335.118 211.325 335.332 211.752C335.972 212.819 337.145 214.291 338.852 216.168C340.388 217.875 341.476 219.197 342.116 220.136ZM339.172 237.224C339.129 234.835 338.468 232.147 337.188 229.16C335.95 226.131 334.137 223.208 331.748 220.392L330.468 219.048C329.444 218.024 328.633 217.107 328.036 216.296C327.481 215.485 327.204 214.675 327.204 213.864C327.204 213.139 327.46 212.456 327.972 211.816C328.185 211.56 328.889 210.771 330.083 209.448C331.449 207.997 332.345 206.952 332.772 206.312C335.033 203.027 336.164 198.931 336.164 194.024C336.164 193.725 336.078 193.555 335.908 193.512C335.737 193.427 335.524 193.405 335.268 193.448C335.054 193.448 334.905 193.448 334.82 193.448H326.372H326.116C326.158 193.96 326.18 194.749 326.18 195.816C326.18 197.309 326.116 199.208 325.988 201.512C325.945 202.835 325.881 206.312 325.796 211.944C325.71 217.576 325.668 222.248 325.668 225.96C325.668 228.733 325.71 230.995 325.796 232.744C325.924 234.493 326.201 235.987 326.628 237.224H339.172Z" fill="#890F0F"/>
<path d="M1619.29 894.274L1550.27 816.326M1196.18 585.733L1265.39 568.653L1351.18 623.253L1320.93 693.562M1385.97 751.124L1481.25 738.378L1550.27 816.326M1385.97 751.124L1445.84 622.421L1394.16 546.155L1456.73 469.946L1316.15 466.79L1320.37 535.95M1385.97 751.124L1377.8 784.515M1320.93 693.562L1290.69 763.87L1377.8 784.515M1320.93 693.562L1225.12 667.733L1186.31 741.064L1114.15 706.886L1091.04 738.896M1550.27 816.326L1410.41 841.822L1380.26 917.602L1423.62 940.379M1377.8 784.515L1324.85 886.689L1250.11 829.57L1203.5 887.303L1101.4 830.661" stroke="#890F0F" stroke-width="18" stroke-linecap="round" stroke-linejoin="round"/>
<path d="M1542.97 416.394L1507.52 346.201M1293.12 109.766L1346.95 110.576L1399.14 166.932L1363.55 212.488M1400.01 267.025L1472.06 276.007L1507.52 346.201M1400.01 267.025L1468.46 184.5L1445.34 118.863L1505.68 75.2023L1403.59 45.9086L1393.4 97.2409M1400.01 267.025L1387.63 289.849M1363.55 212.488L1327.96 258.044L1387.63 289.849M1363.55 212.488L1298.51 175.224L1256.08 221.343L1209.93 182.522L1186.9 201.469M1507.52 346.201L1400.45 337.974L1363.87 387.545L1391.18 412.508M1387.63 289.849L1329.33 354.325L1285.7 298.248L1240.56 331.475L1176.85 270.494" stroke="#890F0F" stroke-width="18" stroke-linecap="round" stroke-linejoin="round"/>
<path d="M-54.0004 981.515L-13.3643 910.944M221.712 678.618L165.999 676.407L108.849 731.723L143.069 780.842M102.281 835.167L27.2718 840.373L-13.3643 910.944M102.281 835.167L36.1819 745.961L63.7978 679.403L3.88275 630.842L111.097 606.334L118.733 659.988M102.281 835.167L113.791 859.468M143.069 780.842L177.29 829.961L113.791 859.468M143.069 780.842L212.428 745.995L253.687 796.084L303.604 758.558L326.343 779.453M-13.3643 910.944L97.8119 908.502L132.819 961.828L103.174 986.094M113.791 859.468L170.414 929.436L218.71 873.925L263.493 910.837L332.825 851.393" stroke="#890F0F" stroke-width="18" stroke-linecap="round" stroke-linejoin="round"/>
</g>
<defs>
<linearGradient id="paint0_linear_182_526" x1="830.55" y1="-728.186" x2="790.871" y2="669.874" gradientUnits="userSpaceOnUse">
<stop offset="0.586538" stop-color="#181818"/>
<stop offset="1" stop-color="#181818" stop-opacity="0"/>
</linearGradient>
<clipPath id="clip0_182_526">
<rect width="1512" height="982" fill="white"/>
</clipPath>
</defs>
</svg>
